<?xml version="1.0" encoding="utf-8"?>
<!-- Generator: Adobe Illustrator 17.0.0, SVG Export Plug-In . SVG Version: 6.00 Build 0)  -->
<!DOCTYPE svg PUBLIC "-//W3C//DTD SVG 1.1//EN" "http://www.w3.org/Graphics/SVG/1.1/DTD/svg11.dtd">
<svg version="1.1" id="Layer_1" xmlns="http://www.w3.org/2000/svg" xmlns:xlink="http://www.w3.org/1999/xlink" x="0px" y="0px"
	 width="65px" height="56px" viewBox="0 0 65 56" enable-background="new 0 0 65 56" xml:space="preserve">
<linearGradient id="SVGID_1_" gradientUnits="userSpaceOnUse" x1="14.4317" y1="28" x2="50.5683" y2="28">
	<stop  offset="0" style="stop-color:#22A9E0"/>
	<stop  offset="1" style="stop-color:#00A79C"/>
</linearGradient>
<path fill="url(#SVGID_1_)" d="M35.786,17.321c-0.454,0-0.821-0.368-0.821-0.821c0-0.454,0.368-0.821,0.821-0.821
	c0.454,0,0.821,0.368,0.821,0.821C36.607,16.953,36.239,17.321,35.786,17.321L35.786,17.321z M50.241,34.407l-7.705,5.777
	c-1.525,1.145-3.332,1.86-5.227,2.071L25.741,43.54c-0.388,0.044-0.785,0.066-1.18,0.066h-1.916c-0.455,0-0.821-0.368-0.821-0.821
	s0.366-0.821,0.821-0.821h1.916c0.333,0,0.67-0.017,0.998-0.055l11.569-1.286c1.602-0.178,3.132-0.784,4.423-1.752l6.844-5.134
	c-1.136-0.66-2.573-0.701-3.759-0.041l-3.498,1.636c-1.233,0.577-2.605,0.882-3.966,0.882h-3.029h-0.821h-4.107
	c-0.455,0-0.821-0.368-0.821-0.821c0-0.454,0.366-0.821,0.821-0.821h4.107h0.821c1.358,0,2.464-1.106,2.464-2.464h-8.518
	c-1.657,0-3.234,0.715-4.326,1.963l-3.582,4.094v4.62c0,1.359-1.106,2.465-2.464,2.465h-2.464c-0.455,0-0.821-0.369-0.821-0.823
	c0-0.452,0.366-0.821,0.821-0.821h2.464c0.452,0,0.821-0.368,0.821-0.821v-4.928c0-0.452-0.369-0.821-0.821-0.821h-2.464
	c-0.455,0-0.821-0.368-0.821-0.821c0-0.454,0.366-0.821,0.821-0.821h2.464c0.77,0,1.45,0.363,1.904,0.918l2.907-3.323
	c1.403-1.603,3.431-2.525,5.561-2.525h8.518c0.906,0,1.643,0.738,1.643,1.644c0,0.921-0.316,1.763-0.832,2.45
	c1.042-0.033,2.082-0.272,3.026-0.713l3.446-1.61c2.062-1.15,4.731-0.774,6.439,0.934c0.169,0.169,0.255,0.402,0.238,0.64
	C50.55,34.046,50.432,34.263,50.241,34.407L50.241,34.407z M47.284,20.607h-1.643v9.034c0,0.454-0.368,0.821-0.821,0.821
	c-0.455,0-0.821-0.368-0.821-0.821v-9.856c0-0.454,0.366-0.821,0.821-0.821h1.636c-0.028-0.249-0.169-0.469-0.386-0.604l-9.195-5.66
	c-0.655-0.404-1.522-0.404-2.181,0l-9.194,5.66c-0.217,0.133-0.357,0.354-0.386,0.604h1.638c0.454,0,0.821,0.368,0.821,0.821v8.213
	c0,0.454-0.368,0.821-0.821,0.821c-0.455,0-0.821-0.368-0.821-0.821v-7.392h-1.643c-0.455,0-0.821-0.369-0.821-0.821v-0.724
	c0-0.864,0.438-1.647,1.172-2.101l9.195-5.658c1.176-0.723,2.728-0.723,3.903,0l2.977,1.832v-1.563c0-0.454,0.366-0.821,0.821-0.821
	h3.285c0.454,0,0.821,0.368,0.821,0.821v4.596l1.291,0.795c0.734,0.452,1.173,1.236,1.173,2.099v0.724
	C48.105,20.238,47.738,20.607,47.284,20.607L47.284,20.607z M43.999,12.393h-1.643v1.643c0,0.034-0.016,0.064-0.02,0.099
	l1.663,1.022V12.393L43.999,12.393z M34.964,28.821c-0.455,0-0.821-0.368-0.821-0.821v-0.821c-0.455,0-0.821-0.368-0.821-0.821
	s0.366-0.821,0.821-0.821V22.25h-3.285v5.749c0,0.454-0.368,0.821-0.821,0.821c-0.455,0-0.821-0.368-0.821-0.821v-6.57
	c0-0.454,0.366-0.821,0.821-0.821h4.928c0.454,0,0.821,0.368,0.821,0.821v6.57C35.786,28.453,35.418,28.821,34.964,28.821
	L34.964,28.821z M41.535,27.178h-4.107c-0.455,0-0.821-0.368-0.821-0.821v-4.928c0-0.454,0.366-0.821,0.821-0.821h4.107
	c0.454,0,0.821,0.368,0.821,0.821v4.928C42.356,26.81,41.989,27.178,41.535,27.178L41.535,27.178z M40.714,22.25H38.25v3.285h2.464
	V22.25L40.714,22.25z"/>
</svg>
