<?xml version="1.0" encoding="utf-8"?>
<!-- Generator: Adobe Illustrator 17.0.0, SVG Export Plug-In . SVG Version: 6.00 Build 0)  -->
<!DOCTYPE svg PUBLIC "-//W3C//DTD SVG 1.1//EN" "http://www.w3.org/Graphics/SVG/1.1/DTD/svg11.dtd">
<svg version="1.1" id="Layer_1" xmlns:sketch="http://www.bohemiancoding.com/sketch/ns"
	 xmlns="http://www.w3.org/2000/svg" xmlns:xlink="http://www.w3.org/1999/xlink" x="0px" y="0px" width="199.392px"
	 height="66.144px" viewBox="2.281 1.856 199.392 66.144" enable-background="new 2.281 1.856 199.392 66.144" xml:space="preserve"
	>
<title>GooglePlay</title>
<desc>Created with Sketch.</desc>
<g id="Page-1" sketch:type="MSPage">
	<g id="GooglePlay" sketch:type="MSArtboardGroup">
		<g id="App-Store" transform="translate(20.000000, 16.000000)" sketch:type="MSLayerGroup">
			<path id="background" sketch:type="MSShapeGroup" d="M-9.782-14.144h183.518c4.384,0,7.937,3.554,7.937,7.937v50.27
				c0,4.384-3.554,7.937-7.937,7.937H-9.782c-4.384,0-7.937-3.554-7.937-7.937v-50.27C-17.719-10.59-14.166-14.144-9.782-14.144z"/>
			<g id="icon" transform="translate(130.000000, 88.000000)" sketch:type="MSShapeGroup">
				<path id="Fill-2" fill="#FFFFFF" d="M-102.944-70.585c-0.043-4.731,3.874-7.033,4.053-7.141
					c-2.218-3.234-5.656-3.676-6.864-3.711c-2.888-0.304-5.689,1.728-7.159,1.728c-1.5,0-3.766-1.698-6.207-1.648
					c-3.142,0.049-6.08,1.867-7.692,4.692c-3.326,5.759-0.846,14.222,2.341,18.877c1.595,2.282,3.457,4.826,5.896,4.736
					c2.386-0.097,3.277-1.521,6.155-1.521c2.852,0,3.689,1.521,6.176,1.462c2.56-0.038,4.172-2.289,5.71-4.591
					c1.842-2.61,2.582-5.186,2.612-5.318C-97.983-63.04-102.894-64.915-102.944-70.585"/>
				<path id="Fill-3" fill="#FFFFFF" d="M-107.642-84.499c1.283-1.605,2.161-3.787,1.917-6.003
					c-1.857,0.082-4.179,1.285-5.517,2.854c-1.183,1.383-2.24,3.649-1.967,5.781C-111.122-81.711-108.981-82.92-107.642-84.499"/>
			</g>
			<g transform="translate(459.000000, 218.000000)" sketch:type="MSShapeGroup">
				<path id="Fill-4" fill="#FFFFFF" d="M-397.391-183.38h-3.334l-1.826-5.739h-6.348l-1.74,5.739h-3.246l6.291-19.536h3.884
					L-397.391-183.38L-397.391-183.38z M-403.102-191.527l-1.651-5.1c-0.174-0.523-0.504-1.75-0.985-3.682h-0.059
					c-0.194,0.831-0.504,2.058-0.928,3.682l-1.624,5.1H-403.102L-403.102-191.527z"/>
				<path id="Fill-5" fill="#FFFFFF" d="M-381.246-190.597c0,2.396-0.65,4.29-1.952,5.68c-1.165,1.237-2.615,1.855-4.342,1.855
					c-1.866,0-3.208-0.665-4.022-1.999v7.391h-3.13v-15.167c0-1.505-0.04-3.048-0.116-4.63h2.753l0.174,2.234h0.059
					c1.044-1.684,2.628-2.525,4.754-2.525c1.662,0,3.049,0.656,4.159,1.97C-381.803-194.471-381.246-192.742-381.246-190.597
					L-381.246-190.597z M-384.435-190.482c0-1.371-0.308-2.501-0.928-3.391c-0.677-0.926-1.586-1.392-2.724-1.392
					c-0.772,0-1.474,0.258-2.1,0.769c-0.628,0.513-1.039,1.183-1.232,2.015c-0.097,0.386-0.145,0.702-0.145,0.951v2.352
					c0,1.021,0.314,1.886,0.942,2.594c0.628,0.704,1.445,1.059,2.449,1.059c1.179,0,2.096-0.457,2.753-1.363
					C-384.764-187.796-384.435-188.994-384.435-190.482L-384.435-190.482z"/>
				<path id="Fill-6" fill="#FFFFFF" d="M-365.044-190.597c0,2.396-0.65,4.29-1.952,5.68c-1.167,1.237-2.615,1.855-4.344,1.855
					c-1.864,0-3.206-0.665-4.022-1.999v7.391h-3.13v-15.167c0-1.505-0.04-3.048-0.116-4.63h2.753l0.174,2.234h0.059
					c1.042-1.684,2.626-2.525,4.754-2.525c1.66,0,3.049,0.656,4.16,1.97C-365.602-194.471-365.044-192.742-365.044-190.597
					L-365.044-190.597z M-368.234-190.482c0-1.371-0.31-2.501-0.929-3.391c-0.675-0.926-1.583-1.392-2.721-1.392
					c-0.772,0-1.474,0.258-2.103,0.769c-0.627,0.513-1.038,1.183-1.23,2.015c-0.095,0.386-0.147,0.702-0.147,0.951v2.352
					c0,1.021,0.316,1.886,0.941,2.594c0.628,0.703,1.445,1.059,2.452,1.059c1.18,0,2.098-0.457,2.753-1.363
					C-368.563-187.796-368.234-188.994-368.234-190.482L-368.234-190.482z"/>
				<path id="Fill-7" fill="#FFFFFF" d="M-346.929-188.859c0,1.662-0.58,3.014-1.737,4.058c-1.271,1.139-3.046,1.71-5.321,1.71
					c-2.102,0-3.787-0.405-5.059-1.217l0.724-2.609c1.373,0.812,2.88,1.219,4.522,1.219c1.18,0,2.098-0.267,2.753-0.797
					c0.658-0.533,0.988-1.242,0.988-2.129c0-0.794-0.273-1.461-0.813-2.002c-0.542-0.539-1.437-1.044-2.694-1.505
					c-3.42-1.276-5.132-3.143-5.132-5.596c0-1.603,0.605-2.916,1.81-3.941c1.207-1.024,2.807-1.537,4.797-1.537
					c1.778,0,3.259,0.31,4.435,0.928l-0.785,2.551c-1.107-0.599-2.356-0.899-3.754-0.899c-1.104,0-1.972,0.272-2.59,0.812
					c-0.521,0.483-0.787,1.072-0.787,1.77c0,0.771,0.301,1.411,0.902,1.912c0.52,0.464,1.468,0.968,2.839,1.508
					c1.682,0.678,2.917,1.468,3.709,2.375C-347.325-191.341-346.929-190.21-346.929-188.859"/>
				<path id="Fill-8" fill="#FFFFFF" d="M-336.554-195.118h-3.45v6.84c0,1.74,0.608,2.607,1.826,2.607
					c0.559,0,1.023-0.047,1.39-0.145l0.086,2.377c-0.617,0.23-1.428,0.346-2.433,0.346c-1.237,0-2.202-0.379-2.901-1.132
					c-0.696-0.755-1.044-2.018-1.044-3.798v-7.102h-2.054v-2.349h2.054v-2.579l3.074-0.928v3.507h3.45L-336.554-195.118"/>
				<path id="Fill-9" fill="#FFFFFF" d="M-321.02-190.54c0,2.165-0.618,3.943-1.855,5.333c-1.294,1.43-3.014,2.145-5.159,2.145
					c-2.07,0-3.715-0.686-4.943-2.057c-1.227-1.371-1.841-3.1-1.841-5.186c0-2.183,0.635-3.971,1.898-5.361
					c1.265-1.39,2.971-2.087,5.116-2.087c2.069,0,3.727,0.689,4.986,2.058C-321.617-194.364-321.02-192.648-321.02-190.54
					L-321.02-190.54z M-324.264-190.468c0-1.291-0.279-2.397-0.838-3.323c-0.656-1.119-1.597-1.677-2.813-1.677
					c-1.252,0-2.217,0.558-2.87,1.677c-0.562,0.926-0.84,2.053-0.84,3.382c0,1.292,0.278,2.401,0.84,3.323
					c0.677,1.12,1.621,1.68,2.845,1.68c1.195,0,2.133-0.572,2.813-1.706C-324.553-188.061-324.264-189.174-324.264-190.468
					L-324.264-190.468z"/>
				<path id="Fill-10" fill="#FFFFFF" d="M-310.842-194.715c-0.31-0.058-0.641-0.085-0.987-0.085c-1.101,0-1.952,0.412-2.551,1.246
					c-0.521,0.734-0.781,1.662-0.781,2.782v7.391h-3.13v-9.651c0-1.622-0.031-3.103-0.091-4.435h2.726l0.115,2.695h0.087
					c0.331-0.926,0.851-1.674,1.565-2.231c0.699-0.505,1.451-0.756,2.262-0.756c0.289,0,0.55,0.022,0.782,0.058L-310.842-194.715"/>
				<path id="Fill-11" fill="#FFFFFF" d="M-296.845-191.09c0,0.56-0.037,1.033-0.115,1.419h-9.388
					c0.034,1.392,0.49,2.458,1.361,3.191c0.791,0.655,1.816,0.984,3.071,0.984c1.39,0,2.659-0.22,3.799-0.667l0.49,2.172
					c-1.333,0.58-2.908,0.87-4.722,0.87c-2.184,0-3.899-0.643-5.147-1.926c-1.243-1.285-1.868-3.012-1.868-5.173
					c0-2.123,0.578-3.892,1.741-5.303c1.216-1.506,2.858-2.259,4.925-2.259c2.03,0,3.567,0.753,4.61,2.259
					C-297.26-194.327-296.845-192.848-296.845-191.09L-296.845-191.09z M-299.829-191.902c0.022-0.929-0.183-1.728-0.608-2.406
					c-0.542-0.872-1.376-1.307-2.492-1.307c-1.024,0-1.857,0.424-2.491,1.276c-0.521,0.677-0.831,1.491-0.926,2.434
					L-299.829-191.902L-299.829-191.902z"/>
			</g>
			<g id="Available-on-the" transform="translate(468.000000, 91.000000)" sketch:type="MSShapeGroup">
				<path id="Fill-12" fill="#FFFFFF" d="M-413.611-82.909h-1.639l-0.897-2.82h-3.12l-0.856,2.82h-1.596l3.091-9.603h1.909
					L-413.611-82.909L-413.611-82.909z M-416.418-86.912l-0.812-2.507c-0.085-0.257-0.242-0.854-0.484-1.809h-0.029
					c-0.1,0.412-0.242,1.011-0.457,1.809l-0.797,2.507L-416.418-86.912L-416.418-86.912z"/>
				<path id="Fill-13" fill="#FFFFFF" d="M-405.881-89.832l-2.622,6.923h-1.496l-2.537-6.923h1.653l1.183,3.661
					c0.2,0.612,0.37,1.197,0.498,1.752h0.043c0.114-0.498,0.285-1.082,0.498-1.752l1.168-3.661H-405.881"/>
				<path id="Fill-14" fill="#FFFFFF" d="M-400.299-82.909l-0.115-0.797h-0.043c-0.47,0.641-1.154,0.954-2.023,0.954
					c-1.239,0-2.123-0.869-2.123-2.038c0-1.709,1.481-2.593,4.046-2.593v-0.128c0-0.912-0.484-1.368-1.439-1.368
					c-0.684,0-1.283,0.172-1.809,0.514l-0.313-1.011c0.641-0.399,1.439-0.599,2.38-0.599c1.809,0,2.721,0.954,2.721,2.864v2.55
					c0,0.699,0.029,1.24,0.1,1.653L-400.299-82.909L-400.299-82.909z M-400.514-86.357c-1.71,0-2.564,0.414-2.564,1.396
					c0,0.727,0.442,1.082,1.054,1.082c0.784,0,1.511-0.598,1.511-1.409L-400.514-86.357L-400.514-86.357z"/>
				<path id="Fill-15" fill="#FFFFFF" d="M-395.589-90.972c-0.513,0-0.912-0.399-0.912-0.926s0.412-0.912,0.941-0.912
					c0.527,0,0.954,0.385,0.939,0.912C-394.619-91.342-395.017-90.972-395.589-90.972L-395.589-90.972z M-396.328-89.832h1.538
					v6.923h-1.538V-89.832z"/>
				<path id="Fill-16" fill="#FFFFFF" d="M-392.056-93.009h1.538v10.1h-1.538V-93.009z"/>
				<path id="Fill-17" fill="#FFFFFF" d="M-383.979-82.909l-0.116-0.797h-0.041c-0.47,0.641-1.154,0.954-2.023,0.954
					c-1.239,0-2.123-0.869-2.123-2.038c0-1.709,1.481-2.593,4.046-2.593v-0.128c0-0.912-0.484-1.368-1.439-1.368
					c-0.684,0-1.283,0.172-1.809,0.514l-0.314-1.013c0.641-0.399,1.439-0.599,2.38-0.599c1.809,0,2.723,0.954,2.723,2.864v2.55
					c0,0.699,0.029,1.24,0.097,1.653L-383.979-82.909L-383.979-82.909z M-384.194-86.357c-1.71,0-2.564,0.414-2.564,1.396
					c0,0.727,0.442,1.082,1.054,1.082c0.784,0,1.511-0.598,1.511-1.409L-384.194-86.357L-384.194-86.357z"/>
				<path id="Fill-18" fill="#FFFFFF" d="M-376.463-82.752c-0.982,0-1.707-0.414-2.178-1.226h-0.029l-0.088,1.069h-1.309
					c0.041-0.555,0.056-1.183,0.056-1.866v-8.234h1.541v4.19h0.028c0.457-0.769,1.197-1.154,2.208-1.154
					c1.668,0,2.836,1.425,2.836,3.504C-373.399-84.32-374.697-82.752-376.463-82.752L-376.463-82.752z M-376.776-88.765
					c-0.885,0-1.696,0.769-1.696,1.838v1.211c0,0.954,0.728,1.738,1.668,1.738c1.152,0,1.84-0.939,1.84-2.436
					C-374.966-87.809-375.679-88.765-376.776-88.765L-376.776-88.765z"/>
				<path id="Fill-19" fill="#FFFFFF" d="M-371.123-93.009h1.537v10.1h-1.537V-93.009z"/>
				<path id="Fill-20" fill="#FFFFFF" d="M-361.212-86.001h-4.618c0.031,1.311,0.897,2.051,2.178,2.051
					c0.686,0,1.312-0.114,1.867-0.327l0.239,1.069c-0.655,0.285-1.424,0.427-2.321,0.427c-2.167,0-3.449-1.368-3.449-3.489
					c0-2.123,1.312-3.718,3.277-3.718c1.765,0,2.879,1.311,2.879,3.292C-361.155-86.427-361.168-86.185-361.212-86.001
					L-361.212-86.001z M-362.621-87.097c0-1.069-0.543-1.824-1.527-1.824c-0.884,0-1.58,0.769-1.682,1.824H-362.621L-362.621-87.097
					z"/>
				<path id="Fill-21" fill="#FFFFFF" d="M-351.887-82.752c-2.023,0-3.334-1.511-3.334-3.561c0-2.138,1.339-3.661,3.45-3.661
					c1.992,0,3.334,1.439,3.334,3.548C-348.437-84.262-349.82-82.752-351.887-82.752L-351.887-82.752z M-351.828-88.85
					c-1.111,0-1.824,1.039-1.824,2.493c0,1.425,0.727,2.465,1.809,2.465s1.809-1.111,1.809-2.494
					C-350.035-87.796-350.746-88.85-351.828-88.85L-351.828-88.85z"/>
				<path id="Fill-22" fill="#FFFFFF" d="M-340.167-82.909h-1.536v-3.976c0-1.224-0.471-1.838-1.397-1.838
					c-0.912,0-1.54,0.784-1.54,1.696v4.118h-1.536v-4.944c0-0.612-0.017-1.268-0.059-1.981h1.354l0.072,1.069h0.044
					c0.409-0.74,1.252-1.211,2.193-1.211c1.451,0,2.404,1.111,2.404,2.92L-340.167-82.909"/>
				<path id="Fill-23" fill="#FFFFFF" d="M-330.1-88.678h-1.693v3.362c0,0.856,0.298,1.283,0.896,1.283
					c0.27,0,0.501-0.029,0.684-0.072l0.043,1.168c-0.3,0.114-0.7,0.172-1.195,0.172c-1.214,0-1.936-0.67-1.936-2.422v-3.491h-1.008
					v-1.154h1.008V-91.1l1.509-0.457v1.723h1.693L-330.1-88.678"/>
				<path id="Fill-24" fill="#FFFFFF" d="M-321.953-82.909h-1.54v-3.946c0-1.239-0.471-1.866-1.396-1.866
					c-0.797,0-1.537,0.542-1.537,1.638v4.173h-1.54v-10.1h1.54v4.159h0.029c0.483-0.755,1.183-1.126,2.08-1.126
					c1.467,0,2.364,1.139,2.364,2.949V-82.909"/>
				<path id="Fill-25" fill="#FFFFFF" d="M-314.092-86.001h-4.617c0.029,1.311,0.896,2.051,2.178,2.051
					c0.687,0,1.312-0.114,1.864-0.327l0.241,1.069c-0.653,0.285-1.424,0.427-2.322,0.427c-2.165,0-3.447-1.368-3.447-3.489
					c0-2.123,1.311-3.718,3.275-3.718c1.766,0,2.879,1.311,2.879,3.292C-314.034-86.427-314.049-86.185-314.092-86.001
					L-314.092-86.001z M-315.502-87.097c0-1.069-0.54-1.824-1.524-1.824c-0.884,0-1.581,0.769-1.682,1.824H-315.502L-315.502-87.097
					z"/>
			</g>
		</g>
	</g>
</g>
</svg>
