<?xml version="1.0" encoding="utf-8"?>
<!-- Generator: Adobe Illustrator 17.0.0, SVG Export Plug-In . SVG Version: 6.00 Build 0)  -->
<!DOCTYPE svg PUBLIC "-//W3C//DTD SVG 1.1//EN" "http://www.w3.org/Graphics/SVG/1.1/DTD/svg11.dtd">
<svg version="1.1" id="Layer_1" xmlns="http://www.w3.org/2000/svg" xmlns:xlink="http://www.w3.org/1999/xlink" x="0px" y="0px"
	 width="65px" height="56px" viewBox="0 0 65 56" enable-background="new 0 0 65 56" xml:space="preserve">
<g>
	<path fill="#27AAE1" d="M16.253,34.281c-1.547,0-2.806,1.258-2.806,2.805c0,1.546,1.259,2.805,2.806,2.805s2.805-1.258,2.805-2.805
		C19.058,35.539,17.8,34.281,16.253,34.281z M16.253,39.031c-1.073,0-1.947-0.873-1.947-1.945c0-1.073,0.873-1.946,1.947-1.946
		c1.073,0,1.946,0.873,1.946,1.946C18.199,38.159,17.325,39.031,16.253,39.031z"/>
	<path fill="#27AAE1" d="M61.645,31.339v-0.742c0-3.034-2.469-5.503-5.505-5.503h-6.214c-0.001-0.003-0.002-0.006-0.003-0.008
		l-1.844-3.678c-0.787-1.569-2.367-2.545-4.124-2.545H40.14v-1.436c0-1.847-1.503-3.348-3.35-3.348H9.644
		c-1.776,0-3.245,1.388-3.345,3.159l-0.938,16.61H3.794c-0.798,0-1.445,0.647-1.445,1.444c0,0.798,0.647,1.444,1.445,1.444h1.404
		l-0.015,0.267c-0.022,0.397,0.119,0.785,0.393,1.074c0.273,0.288,0.653,0.452,1.05,0.452h5.011c0.616,1.962,2.452,3.39,4.616,3.39
		s4-1.428,4.615-3.39h17.826h8.94c0.616,1.962,2.452,3.39,4.615,3.39s4-1.428,4.616-3.39H60.2c0.798,0,1.445-0.647,1.445-1.444
		v-1.331c0.584-0.185,1.006-0.731,1.006-1.376v-1.664C62.651,32.07,62.228,31.525,61.645,31.339z M61.792,34.379
		c0,0.256-0.164,0.48-0.407,0.557c-0.357,0.113-0.599,0.445-0.599,0.819v1.331c0,0.323-0.263,0.585-0.586,0.585h-3.335
		c-0.376,0-0.707,0.244-0.82,0.602c-0.248,0.79-0.754,1.5-1.422,2c-0.691,0.516-1.512,0.789-2.374,0.789s-1.683-0.273-2.373-0.789
		c-0.669-0.5-1.174-1.21-1.422-2c-0.113-0.358-0.444-0.602-0.82-0.602h-8.94H20.868c-0.376,0-0.707,0.244-0.82,0.602
		c-0.248,0.79-0.753,1.5-1.422,2c-0.691,0.516-1.511,0.789-2.373,0.789c-0.863,0-1.684-0.273-2.374-0.789
		c-0.669-0.5-1.174-1.21-1.422-2c-0.113-0.358-0.444-0.602-0.82-0.602H6.625c-0.16,0-0.315-0.067-0.425-0.184
		c-0.102-0.108-0.16-0.251-0.16-0.401l0.001-0.038l0.015-0.265c0.001-0.015,0.001-0.031,0.001-0.046c0-0.22-0.084-0.431-0.236-0.591
		c-0.162-0.172-0.388-0.269-0.624-0.269H3.794c-0.323,0-0.586-0.262-0.586-0.585s0.263-0.585,0.586-0.585h1.567
		c0.456,0,0.833-0.355,0.859-0.811l0.938-16.609c0.074-1.316,1.166-2.348,2.486-2.348h27.145c1.373,0,2.49,1.117,2.49,2.489v1.436
		c0,0.474,0.385,0.859,0.859,0.859h3.815c1.429,0,2.714,0.793,3.355,2.071c0,0,1.839,3.667,1.842,3.674
		c0.001,0.002,0.005,0.01,0.005,0.01c0.136,0.314,0.427,0.475,0.769,0.475h6.214c2.562,0,4.646,2.083,4.646,4.643v0.742
		c0,0.374,0.242,0.706,0.599,0.819c0.243,0.077,0.407,0.301,0.407,0.556v1.666H61.792z"/>
	<path fill="#27AAE1" d="M37.249,20.059H8.987c-0.456,0-0.833,0.355-0.859,0.811L7.296,35.593c-0.001,0.016-0.001,0.032-0.001,0.048
		c0,0.219,0.084,0.43,0.235,0.591C7.692,36.403,7.918,36.5,8.155,36.5h2.194c0.396,0,0.741-0.27,0.835-0.655
		c0.273-1.113,0.921-2.123,1.826-2.843c0.931-0.742,2.053-1.134,3.243-1.134s2.311,0.392,3.243,1.134
		c0.905,0.72,1.553,1.73,1.826,2.843c0.094,0.385,0.439,0.655,0.835,0.655h15.092c0.474,0,0.859-0.385,0.859-0.859V20.919
		C38.108,20.444,37.723,20.059,37.249,20.059z M37.249,35.641H22.156c-0.651-2.655-3.05-4.632-5.904-4.632s-5.254,1.977-5.904,4.632
		H8.155l0.832-14.722h28.262V35.641z"/>
	<path fill="#27AAE1" d="M52.249,34.281c-1.547,0-2.805,1.258-2.805,2.805c0,1.546,1.258,2.805,2.805,2.805s2.806-1.258,2.806-2.805
		C55.055,35.539,53.796,34.281,52.249,34.281z M52.249,39.031c-1.073,0-1.946-0.873-1.946-1.945c0-1.073,0.873-1.946,1.946-1.946
		s1.947,0.873,1.947,1.946C54.195,38.159,53.322,39.031,52.249,39.031z"/>
	<path fill="#27AAE1" d="M40.139,25.954h0.684c0.474,0,0.859-0.385,0.859-0.859v-1.122c0-0.323,0.263-0.586,0.586-0.586
		c0.323,0,0.586,0.263,0.586,0.586v1.122c0,0.474,0.385,0.859,0.859,0.859h2.979c0.298,0,0.575-0.154,0.731-0.408
		c0.085-0.138,0.128-0.294,0.128-0.451c0-0.132-0.03-0.264-0.091-0.386l-0.333-0.664l-0.866-1.728
		c-0.441-0.879-1.325-1.424-2.308-1.424h-2.258h-1.557c-0.474,0-0.859,0.385-0.859,0.859v3.342
		C39.279,25.569,39.664,25.954,40.139,25.954z M40.139,21.753h1.557h2.258c0.656,0,1.246,0.364,1.54,0.95l0.866,1.728l0.333,0.664
		h-2.979v-1.122c0-0.798-0.647-1.445-1.445-1.445s-1.446,0.647-1.446,1.445v1.122h-0.684V21.753z"/>
	<path fill="#27AAE1" d="M36.789,16.109H9.644c-0.7,0-1.279,0.547-1.318,1.246l0.001-0.002l-0.036,0.628
		c-0.001,0.017-0.001,0.034-0.001,0.05c0,0.218,0.084,0.43,0.234,0.589c0.162,0.171,0.388,0.269,0.625,0.269h28.099
		c0.474,0,0.859-0.385,0.859-0.859v-0.602C38.108,16.7,37.517,16.109,36.789,16.109z M37.249,18.03H9.15l0.036-0.628
		c0.013-0.243,0.215-0.434,0.459-0.434H36.79c0.253,0,0.46,0.206,0.46,0.46L37.249,18.03L37.249,18.03z"/>
	<path fill="#27AAE1" d="M56.139,27.124h-16c-0.474,0-0.859,0.385-0.859,0.859v7.658c0,0.474,0.385,0.859,0.859,0.859h6.207
		c0.396,0,0.74-0.27,0.835-0.655c0.273-1.113,0.922-2.123,1.826-2.843c0.931-0.742,2.053-1.134,3.243-1.134s2.312,0.392,3.243,1.134
		c0.905,0.72,1.553,1.73,1.826,2.843c0.094,0.385,0.439,0.655,0.835,0.655h0.602c0.474,0,0.859-0.385,0.859-0.859v-5.044
		C59.614,28.682,58.056,27.124,56.139,27.124z M58.755,35.641h-0.602c-0.65-2.655-3.049-4.632-5.904-4.632
		c-2.854,0-5.253,1.977-5.904,4.632h-6.207v-7.658h16.001c1.442,0,2.616,1.173,2.616,2.614V35.641z"/>
</g>
</svg>
