<?xml version="1.0" encoding="utf-8"?>
<!-- Generator: Adobe Illustrator 17.0.0, SVG Export Plug-In . SVG Version: 6.00 Build 0)  -->
<!DOCTYPE svg PUBLIC "-//W3C//DTD SVG 1.1//EN" "http://www.w3.org/Graphics/SVG/1.1/DTD/svg11.dtd">
<svg version="1.1" id="Layer_1" xmlns="http://www.w3.org/2000/svg" xmlns:xlink="http://www.w3.org/1999/xlink" x="0px" y="0px"
	 width="65px" height="56px" viewBox="0 0 65 56" enable-background="new 0 0 65 56" xml:space="preserve">
<linearGradient id="SVGID_1_" gradientUnits="userSpaceOnUse" x1="13.9205" y1="28" x2="51.0795" y2="28">
	<stop  offset="0" style="stop-color:#22A9E0"/>
	<stop  offset="1" style="stop-color:#00A79C"/>
</linearGradient>
<path fill="url(#SVGID_1_)" d="M50.34,37.787H37.288v3.83h2.625c0.408,0,0.74,0.332,0.74,0.74c0,0.408-0.332,0.74-0.74,0.74H25.087
	c-0.408,0-0.74-0.332-0.74-0.74c0-0.408,0.332-0.74,0.74-0.74h2.627v-3.83H14.66c-0.408,0-0.74-0.332-0.74-0.74V13.644
	c0-0.408,0.332-0.74,0.74-0.74H50.34c0.408,0,0.74,0.332,0.74,0.74v23.403C51.08,37.457,50.748,37.787,50.34,37.787L50.34,37.787z
	 M29.194,41.616h6.613v-3.83h-6.613V41.616L29.194,41.616z M49.6,14.383H15.4v21.923H49.6V14.383L49.6,14.383z M31.241,27.158
	H17.966c-0.408,0-0.74-0.332-0.74-0.74v-9.565c0-0.408,0.332-0.74,0.74-0.74h13.275c0.408,0,0.74,0.332,0.74,0.742v9.563
	C31.981,26.827,31.65,27.158,31.241,27.158L31.241,27.158z M24.493,25.678l-2.353-2.353l-2.351,2.353H24.493L24.493,25.678z
	 M30.502,17.594H18.706v7.073l2.911-2.91c0.289-0.289,0.757-0.289,1.047,0l1.533,1.533l3.404-3.403c0.289-0.288,0.757-0.288,1.047,0
	l1.854,1.854V17.594L30.502,17.594z M30.502,23.832l-2.376-2.375l-2.88,2.878l1.27,1.272c0.023,0.022,0.044,0.045,0.063,0.07h3.924
	V23.832L30.502,23.832z M47.688,19.92l-9.605,9.602c-0.088,0.086-0.194,0.15-0.31,0.185l-3.853,1.165
	c-0.094,0.042-0.197,0.067-0.305,0.067h-0.022c-0.002,0-0.002,0-0.002,0H17.966c-0.408,0-0.74-0.332-0.74-0.74
	c0-0.41,0.332-0.74,0.74-0.74h15.076l1.04-3.435c0-0.002,0-0.003,0.002-0.005v-0.002c0.034-0.113,0.095-0.219,0.185-0.308
	l9.605-9.602c0.682-0.682,1.791-0.682,2.473,0l1.341,1.339c0.33,0.332,0.512,0.77,0.512,1.237
	C48.199,19.15,48.018,19.59,47.688,19.92L47.688,19.92z M34.7,29.09l1.461-0.443l-1.018-1.018L34.7,29.09L34.7,29.09z
	 M43.353,18.722l-7.514,7.511l1.719,1.719l7.515-7.511L43.353,18.722L43.353,18.722z M46.641,18.493l-1.341-1.339
	c-0.105-0.105-0.275-0.105-0.38,0l-0.519,0.521l1.719,1.719l0.521-0.521c0.069-0.069,0.078-0.149,0.078-0.189
	C46.72,18.642,46.71,18.562,46.641,18.493L46.641,18.493z M43.825,34.497H17.966c-0.408,0-0.74-0.332-0.74-0.74
	c0-0.408,0.332-0.74,0.74-0.74h25.859c0.408,0,0.74,0.332,0.74,0.74C44.565,34.165,44.234,34.497,43.825,34.497L43.825,34.497z
	 M47.112,34.497h-0.4c-0.408,0-0.74-0.332-0.74-0.74c0-0.408,0.332-0.74,0.74-0.74h0.4c0.408,0,0.74,0.332,0.74,0.74
	C47.852,34.165,47.521,34.497,47.112,34.497L47.112,34.497z"/>
</svg>
