<?xml version="1.0" encoding="utf-8"?>
<!-- Generator: Adobe Illustrator 17.0.0, SVG Export Plug-In . SVG Version: 6.00 Build 0)  -->
<!DOCTYPE svg PUBLIC "-//W3C//DTD SVG 1.1//EN" "http://www.w3.org/Graphics/SVG/1.1/DTD/svg11.dtd">
<svg version="1.1" id="Layer_1" xmlns="http://www.w3.org/2000/svg" xmlns:xlink="http://www.w3.org/1999/xlink" x="0px" y="0px"
	 width="65px" height="56px" viewBox="0 0 65 56" enable-background="new 0 0 65 56" xml:space="preserve">
<g>
	<linearGradient id="SVGID_1_" gradientUnits="userSpaceOnUse" x1="24.9445" y1="27.3869" x2="40.0384" y2="27.3869">
		<stop  offset="0" style="stop-color:#22A9E0"/>
		<stop  offset="1" style="stop-color:#00A79C"/>
	</linearGradient>
	<path fill="url(#SVGID_1_)" d="M39.205,24.983l-4.268-0.314l-1.615-3.991c-0.306-0.749-1.361-0.749-1.66,0l-1.614,3.991
		l-4.269,0.314c-0.803,0.061-1.132,1.071-0.512,1.591l3.267,2.776l-1.025,4.183c-0.191,0.788,0.658,1.414,1.347,0.986l3.633-2.271
		l3.634,2.271c0.68,0.428,1.538-0.199,1.346-0.986l-1.025-4.183l3.267-2.776C40.337,26.054,40.009,25.044,39.205,24.983z
		 M36.896,33.287c-0.001-0.001-0.002-0.002-0.003-0.002l-0.016-0.01C36.883,33.28,36.89,33.284,36.896,33.287z M26.209,25.465
		c-0.002-0.002-0.005-0.005-0.008-0.007c0.005,0.004,0.009,0.008,0.014,0.012L26.209,25.465z M35.502,28.241
		c-0.33,0.28-0.513,0.687-0.513,1.108c0,0.115,0.014,0.231,0.042,0.346c0,0,0.399,1.628,0.702,2.865
		c-1.075-0.672-2.474-1.546-2.474-1.546c-0.235-0.147-0.503-0.222-0.771-0.222c-0.268,0-0.535,0.074-0.771,0.222
		c0,0-1.397,0.874-2.473,1.546c0.303-1.236,0.702-2.865,0.702-2.865c0.028-0.115,0.042-0.232,0.042-0.347
		c0-0.421-0.183-0.828-0.513-1.108c0,0-1.279-1.087-2.243-1.907c1.261-0.093,2.923-0.215,2.923-0.215
		c0.553-0.04,1.034-0.391,1.242-0.905c0,0,0.617-1.528,1.095-2.709c0.478,1.181,1.096,2.709,1.096,2.709
		c0.208,0.514,0.69,0.865,1.242,0.905c0,0,1.654,0.121,2.916,0.214C36.781,27.154,35.502,28.241,35.502,28.241z M38.769,25.465
		L38.769,25.465C38.769,25.465,38.769,25.465,38.769,25.465L38.769,25.465z"/>
	<linearGradient id="SVGID_2_" gradientUnits="userSpaceOnUse" x1="14.3154" y1="28" x2="50.6846" y2="28">
		<stop  offset="0" style="stop-color:#22A9E0"/>
		<stop  offset="1" style="stop-color:#00A79C"/>
	</linearGradient>
	<path fill="url(#SVGID_2_)" d="M50.244,30.183l-0.696-0.963c-0.581-0.795-0.589-1.874-0.023-2.685l0.681-0.971
		c0.795-1.132,0.42-2.699-0.788-3.357l-1.04-0.566c-0.864-0.466-1.339-1.437-1.17-2.408l0.199-1.178
		c0.229-1.361-0.78-2.622-2.157-2.676l-1.178-0.054c-0.979-0.038-1.821-0.711-2.096-1.659l-0.329-1.147
		c-0.383-1.331-1.836-2.019-3.091-1.468l-1.086,0.474c-0.903,0.39-1.951,0.16-2.601-0.581l-0.788-0.887
		c-0.918-1.032-2.525-1.017-3.42,0.023l-0.772,0.902c-0.643,0.742-1.683,0.994-2.593,0.62l-1.094-0.452
		c-1.27-0.527-2.708,0.184-3.076,1.522l-0.314,1.147c-0.268,0.963-1.101,1.644-2.073,1.697l-1.178,0.069
		c-1.369,0.077-2.363,1.354-2.111,2.707l0.214,1.17c0.176,0.971-0.283,1.95-1.14,2.424l-1.033,0.581
		c-1.2,0.673-1.545,2.248-0.734,3.365l0.696,0.963c0.581,0.795,0.589,1.874,0.022,2.685l-0.696,0.979
		c-0.795,1.131-0.421,2.699,0.788,3.357l1.041,0.565c0.864,0.467,1.338,1.438,1.17,2.409l-0.192,1.162
		c-0.229,1.361,0.781,2.623,2.158,2.677l1.178,0.054c0.979,0.038,1.821,0.711,2.096,1.659l0.329,1.147
		c0.382,1.33,1.835,2.019,3.09,1.468l1.086-0.474c0.903-0.39,1.951-0.161,2.601,0.574l0.788,0.887
		c0.918,1.032,2.524,1.017,3.419-0.023l0.772-0.902c0.643-0.742,1.684-0.994,2.593-0.62l1.095,0.451
		c1.269,0.528,2.708-0.183,3.075-1.522l0.314-1.147c0.26-0.948,1.094-1.629,2.073-1.69l1.178-0.068
		c1.369-0.077,2.364-1.354,2.112-2.715l-0.215-1.17c-0.176-0.971,0.283-1.95,1.141-2.424l1.032-0.581
		C50.711,32.882,51.055,31.299,50.244,30.183z M48.813,32.252c-0.008,0.005-0.015,0.008-0.024,0.013l-1.032,0.581l0.008-0.005
		c-1.189,0.658-1.927,1.916-1.927,3.284c0,0.229,0.021,0.456,0.061,0.676l0.215,1.17c0,0.002,0.001,0.005,0.001,0.007
		c0.009,0.049,0.014,0.102,0.014,0.156c0,0.446-0.341,0.814-0.776,0.838l-1.182,0.069c-0.002,0-0.005,0-0.007,0
		c-1.599,0.1-2.96,1.209-3.385,2.757l-0.314,1.148c-0.118,0.43-0.499,0.625-0.802,0.625c-0.106,0-0.211-0.021-0.312-0.063
		l-1.098-0.453c-0.455-0.186-0.932-0.281-1.42-0.281c-1.085,0-2.115,0.472-2.827,1.294c-0.002,0.002-0.004,0.005-0.006,0.006
		l-0.772,0.902c-0.209,0.244-0.474,0.28-0.613,0.28c-0.137,0-0.4-0.036-0.614-0.277l-0.788-0.887
		c-0.701-0.793-1.716-1.25-2.781-1.25c-0.512,0-1.012,0.104-1.483,0.308c-0.002,0.001-0.003,0.002-0.005,0.002l-1.086,0.474
		c-0.106,0.046-0.213,0.069-0.321,0.069c-0.296,0-0.669-0.189-0.788-0.606l-0.329-1.147c-0.001-0.002-0.001-0.003-0.002-0.005
		c-0.452-1.556-1.832-2.644-3.436-2.707h0.009l-1.178-0.054c-0.003,0-0.006,0-0.009,0c-0.444-0.018-0.792-0.384-0.792-0.836
		c0-0.05,0.004-0.098,0.012-0.143c0-0.002,0.001-0.005,0.001-0.008l0.192-1.162l-0.001,0.008c0.036-0.212,0.054-0.426,0.054-0.635
		c0-1.379-0.754-2.643-1.968-3.299l-1.038-0.564c-0.329-0.179-0.446-0.508-0.446-0.756c0-0.175,0.051-0.338,0.153-0.483
		l-0.003,0.004l0.004-0.006c-0.001,0.001-0.001,0.002-0.001,0.003l0.693-0.975c0.002-0.003,0.004-0.006,0.006-0.009
		c0.446-0.638,0.683-1.387,0.683-2.164c0-0.8-0.249-1.564-0.72-2.21l-0.694-0.96c-0.137-0.189-0.165-0.376-0.165-0.501
		c0-0.314,0.161-0.591,0.432-0.743l1.028-0.578c1.187-0.659,1.925-1.915,1.925-3.282c0-0.229-0.021-0.456-0.061-0.676l-0.213-1.17
		c-0.001-0.003-0.002-0.006-0.002-0.009c-0.008-0.048-0.013-0.099-0.013-0.152c0-0.435,0.348-0.808,0.776-0.831l1.181-0.07
		c1.595-0.09,2.957-1.198,3.39-2.76c0.001-0.002,0.002-0.004,0.002-0.006l0.314-1.147c0.118-0.43,0.499-0.625,0.803-0.625
		c0.105,0,0.21,0.021,0.311,0.063l1.097,0.453c0.456,0.187,0.933,0.282,1.421,0.282c1.084,0,2.114-0.472,2.826-1.294
		c0.002-0.002,0.004-0.005,0.006-0.006l0.772-0.902c0.209-0.244,0.474-0.28,0.614-0.28c0.137,0,0.4,0.036,0.614,0.277l0.787,0.887
		l-0.006-0.008c0.704,0.804,1.721,1.265,2.79,1.265c0.511,0,1.008-0.104,1.48-0.306c0.002-0.001,0.005-0.002,0.007-0.003
		l1.086-0.474c0.106-0.046,0.213-0.069,0.321-0.069c0.296,0,0.67,0.189,0.789,0.606l0.329,1.147
		c0.001,0.002,0.001,0.003,0.002,0.005c0.452,1.556,1.832,2.644,3.436,2.707h-0.009l1.178,0.054c0.003,0,0.006,0,0.009,0
		c0.444,0.018,0.791,0.384,0.791,0.835c0,0.05-0.004,0.098-0.012,0.143l-0.198,1.175c-0.036,0.21-0.056,0.424-0.056,0.639
		c0,1.379,0.755,2.642,1.969,3.297l-0.005-0.002l1.04,0.566c0.331,0.18,0.449,0.509,0.449,0.757c0,0.176-0.052,0.34-0.156,0.487
		L48.334,25.7c-0.447,0.64-0.683,1.388-0.683,2.165c0,0.802,0.25,1.566,0.721,2.213l0.691,0.957
		c0.137,0.189,0.166,0.377,0.166,0.501C49.23,31.843,49.074,32.112,48.813,32.252z"/>
	<linearGradient id="SVGID_3_" gradientUnits="userSpaceOnUse" x1="19.6273" y1="27.8853" x2="45.3649" y2="27.8853">
		<stop  offset="0" style="stop-color:#22A9E0"/>
		<stop  offset="1" style="stop-color:#00A79C"/>
	</linearGradient>
	<path fill="url(#SVGID_3_)" d="M32.496,14.933c-7.096,0-12.869,5.812-12.869,12.956c0,3.456,1.338,6.707,3.766,9.152
		c2.431,2.448,5.664,3.797,9.103,3.797c7.096,0,12.869-5.812,12.869-12.956c0-3.456-1.338-6.707-3.766-9.152
		C39.168,16.281,35.935,14.933,32.496,14.933z M32.496,39.383c-6.303,0-11.414-5.147-11.414-11.494s5.111-11.501,11.414-11.501
		c6.304,0,11.414,5.147,11.414,11.494S38.8,39.383,32.496,39.383z"/>
</g>
</svg>
