<?xml version="1.0" encoding="utf-8"?>
<!-- Generator: Adobe Illustrator 17.0.0, SVG Export Plug-In . SVG Version: 6.00 Build 0)  -->
<!DOCTYPE svg PUBLIC "-//W3C//DTD SVG 1.1//EN" "http://www.w3.org/Graphics/SVG/1.1/DTD/svg11.dtd">
<svg version="1.1" id="Layer_1" xmlns="http://www.w3.org/2000/svg" xmlns:xlink="http://www.w3.org/1999/xlink" x="0px" y="0px"
	 width="65px" height="56px" viewBox="0 0 65 56" enable-background="new 0 0 65 56" xml:space="preserve">
<linearGradient id="SVGID_1_" gradientUnits="userSpaceOnUse" x1="15.1665" y1="28" x2="49.8335" y2="28">
	<stop  offset="0" style="stop-color:#22A9E0"/>
	<stop  offset="1" style="stop-color:#00A79C"/>
</linearGradient>
<path fill="url(#SVGID_1_)" d="M45.106,45.333h-1.575h-1.575h-1.577H24.622h-1.577h-1.575h-1.575h-4.728V10.667h34.667v34.665
	H45.106L45.106,45.333z M48.258,12.243H16.742v31.515h31.516V12.243L48.258,12.243z M46.681,39.03v3.152H18.319V13.818h28.362
	v23.636h-1.575V15.393H19.894v25.212h25.212V39.03H46.681L46.681,39.03z M34.075,39.03v-9.454h9.455v9.454H34.075L34.075,39.03z
	 M41.955,31.151h-6.303v6.303h6.303V31.151L41.955,31.151z M21.469,26.424v-9.455h9.455v9.455H21.469L21.469,26.424z M29.348,18.546
	h-6.303v6.303h6.303V18.546L29.348,18.546z M32.5,19.334v-1.577h11.031v1.577H32.5L32.5,19.334z M32.5,22.485v-1.575h1.575v1.575
	H32.5L32.5,22.485z M35.652,22.485v-1.575h7.878v1.575H35.652L35.652,22.485z M32.5,25.635V24.06h11.031v1.575H32.5L32.5,25.635z
	 M21.469,31.938v-1.575H32.5v1.575H21.469L21.469,31.938z M30.925,35.091v-1.575H32.5v1.575H30.925L30.925,35.091z M21.469,35.091
	v-1.575h7.878v1.575H21.469L21.469,35.091z M21.469,38.241v-1.575H32.5v1.575H21.469L21.469,38.241z"/>
</svg>
