<?xml version="1.0" encoding="utf-8"?>
<!-- Generator: Adobe Illustrator 17.0.0, SVG Export Plug-In . SVG Version: 6.00 Build 0)  -->
<!DOCTYPE svg PUBLIC "-//W3C//DTD SVG 1.1//EN" "http://www.w3.org/Graphics/SVG/1.1/DTD/svg11.dtd">
<svg version="1.1" id="Layer_1" xmlns="http://www.w3.org/2000/svg" xmlns:xlink="http://www.w3.org/1999/xlink" x="0px" y="0px"
	 width="65px" height="56px" viewBox="0 0 65 56" enable-background="new 0 0 65 56" xml:space="preserve">
<linearGradient id="SVGID_1_" gradientUnits="userSpaceOnUse" x1="17.5876" y1="28" x2="47.4124" y2="28">
	<stop  offset="0" style="stop-color:#22A9E0"/>
	<stop  offset="1" style="stop-color:#00A79C"/>
</linearGradient>
<path fill="url(#SVGID_1_)" d="M41.024,8.404c1.033,0,1.873,0.839,1.873,1.869c0,1.03-0.84,1.868-1.873,1.868
	c-1.032,0-1.872-0.838-1.872-1.868C39.152,9.242,39.992,8.404,41.024,8.404 M38.763,15.732l1.555,0.92l0.705,0.417l0.705-0.417
	l1.555-0.92c0.2,0.061,0.518,0.159,0.633,0.194c0.749,0.254,1.251,0.953,1.251,1.743v4.774l-1.574,2.393l-0.228,0.346v0.415v6.154
	h-4.684v-6.154v-0.415l-0.228-0.346l-1.574-2.392v-4.774c0-0.79,0.502-1.489,1.251-1.743C38.247,15.89,38.564,15.793,38.763,15.732
	 M46.028,36.472v11.124H18.972v-3.174h6.574h1.385v-1.385v-2.59h6.573h1.385v-1.385v-2.59H46.028 M41.024,7.019
	c-1.796,0-3.256,1.459-3.256,3.254c0,1.794,1.46,3.253,3.256,3.253c1.796,0,3.257-1.459,3.257-3.253
	C44.281,8.478,42.819,7.019,41.024,7.019L41.024,7.019z M38.816,14.312c-0.097,0-0.195,0.014-0.289,0.044
	c0,0-0.817,0.251-0.824,0.253c-1.32,0.44-2.207,1.669-2.207,3.06v4.894c0,0.192,0.055,0.38,0.162,0.541l1.641,2.493v6.555
	c0,0.543,0.441,0.984,0.984,0.984h5.485c0.544,0,0.985-0.441,0.985-0.984v-6.555l1.64-2.493c0.106-0.161,0.162-0.349,0.162-0.541
	v-4.894c0-1.391-0.887-2.62-2.207-3.06c-0.008-0.002-0.824-0.253-0.824-0.253c-0.094-0.029-0.191-0.043-0.288-0.043
	c-0.175,0-0.349,0.047-0.502,0.138l-1.707,1.01l-1.707-1.01C39.164,14.359,38.99,14.312,38.816,14.312L38.816,14.312z
	 M46.428,35.087H34.489c-0.544,0-0.985,0.441-0.985,0.984v2.991h-6.973c-0.544,0-0.985,0.441-0.985,0.984v2.991h-6.974
	c-0.544,0-0.985,0.441-0.985,0.984v3.976c0,0.543,0.441,0.984,0.985,0.984h27.855c0.544,0,0.985-0.441,0.985-0.984V36.071
	C47.412,35.528,46.972,35.087,46.428,35.087L46.428,35.087z"/>
</svg>
