<?xml version="1.0" encoding="utf-8"?>
<!-- Generator: Adobe Illustrator 17.0.0, SVG Export Plug-In . SVG Version: 6.00 Build 0)  -->
<!DOCTYPE svg PUBLIC "-//W3C//DTD SVG 1.1//EN" "http://www.w3.org/Graphics/SVG/1.1/DTD/svg11.dtd">
<svg version="1.1" id="Layer_1" xmlns="http://www.w3.org/2000/svg" xmlns:xlink="http://www.w3.org/1999/xlink" x="0px" y="0px"
	 width="200.487px" height="65.581px" viewBox="19.756 2.209 200.487 65.581" enable-background="new 19.756 2.209 200.487 65.581"
	 xml:space="preserve">
<g>
	<path fill="#010101" d="M220.242,58.927c0,4.894-3.967,8.863-8.86,8.863H28.619c-4.893,0.001-8.863-3.969-8.863-8.863V11.072
		c0-4.894,3.969-8.863,8.863-8.863h182.763c4.893,0,8.861,3.969,8.861,8.863L220.242,58.927L220.242,58.927L220.242,58.927z"/>
	<g>
		<g>
			<g>
				<defs>
					<path id="SVGID_1_" d="M63.204,31.077l-9.04-5.219c0,0-16.469-9.51-17.437-10.069c-0.968-0.559-1.933-0.22-1.933,0.948v41.02
						c0,0.876,0.69,1.253,1.531,0.768c0.841-0.486,17.84-10.301,17.84-10.301l9.04-5.219c0,0,7.67-4.428,8.689-5.016
						c1.019-0.589,0.922-1.396,0.061-1.86C71.094,35.665,63.204,31.076,63.204,31.077L63.204,31.077z"/>
				</defs>
				<clipPath id="SVGID_2_">
					<use xlink:href="#SVGID_1_"  overflow="visible"/>
				</clipPath>
				
					<linearGradient id="SVGID_3_" gradientUnits="userSpaceOnUse" x1="3687.6155" y1="-878.3442" x2="3687.6155" y2="-874.6431" gradientTransform="matrix(12 0 0 12 -44205.3945 10554.9648)">
					<stop  offset="0" style="stop-color:#277CB0"/>
					<stop  offset="0.286" style="stop-color:#4B93B6"/>
					<stop  offset="0.767" style="stop-color:#79BDBB"/>
					<stop  offset="1" style="stop-color:#89CFBD"/>
				</linearGradient>
				<path clip-path="url(#SVGID_2_)" fill="url(#SVGID_3_)" d="M34.794,14.835v44.412l22.395-22.205L34.794,14.835z"/>
			</g>
		</g>
	</g>
	<g>
		<g>
			<g>
				<defs>
					<path id="SVGID_4_" d="M63.204,31.077l-9.04-5.219c0,0-16.469-9.51-17.437-10.069c-0.968-0.559-1.933-0.22-1.933,0.948v41.02
						c0,0.876,0.69,1.253,1.531,0.768c0.841-0.486,17.84-10.301,17.84-10.301l9.04-5.219c0,0,7.67-4.428,8.689-5.016
						c1.019-0.589,0.922-1.396,0.061-1.86C71.094,35.665,63.204,31.076,63.204,31.077L63.204,31.077z"/>
				</defs>
				<clipPath id="SVGID_5_">
					<use xlink:href="#SVGID_4_"  overflow="visible"/>
				</clipPath>
				
					<linearGradient id="SVGID_6_" gradientUnits="userSpaceOnUse" x1="3686.6824" y1="-877.4256" x2="3689.0498" y2="-877.4256" gradientTransform="matrix(12 0 0 12 -44205.3945 10554.9648)">
					<stop  offset="0" style="stop-color:#55C1AE"/>
					<stop  offset="1" style="stop-color:#DEE99B"/>
				</linearGradient>
				<path clip-path="url(#SVGID_5_)" fill="url(#SVGID_6_)" d="M63.204,31.077l-9.04-5.219l-19.37-11.184v0.161l22.395,22.206
					L63.204,31.077z"/>
			</g>
		</g>
	</g>
	<g>
		<g>
			<g>
				<defs>
					<path id="SVGID_7_" d="M63.204,31.077l-9.04-5.219c0,0-16.469-9.51-17.437-10.069c-0.968-0.559-1.933-0.22-1.933,0.948v41.02
						c0,0.876,0.69,1.253,1.531,0.768c0.841-0.486,17.84-10.301,17.84-10.301l9.04-5.219c0,0,7.67-4.428,8.689-5.016
						c1.019-0.589,0.922-1.396,0.061-1.86C71.094,35.665,63.204,31.076,63.204,31.077L63.204,31.077z"/>
				</defs>
				<clipPath id="SVGID_8_">
					<use xlink:href="#SVGID_7_"  overflow="visible"/>
				</clipPath>
				
					<linearGradient id="SVGID_9_" gradientUnits="userSpaceOnUse" x1="3687.8662" y1="-876.4937" x2="3687.8662" y2="-874.6298" gradientTransform="matrix(12 0 0 12 -44205.3945 10554.9648)">
					<stop  offset="0" style="stop-color:#EC423D"/>
					<stop  offset="0.167" style="stop-color:#DA4553"/>
					<stop  offset="0.575" style="stop-color:#B1497B"/>
					<stop  offset="0.862" style="stop-color:#964C93"/>
					<stop  offset="1" style="stop-color:#8A4B9D"/>
				</linearGradient>
				<path clip-path="url(#SVGID_8_)" fill="url(#SVGID_9_)" d="M34.794,59.247v0.161l19.37-11.184l9.04-5.219l-6.014-5.964
					L34.794,59.247z"/>
			</g>
		</g>
	</g>
	<g>
		<g>
			<g>
				<defs>
					<path id="SVGID_10_" d="M63.204,31.077l-9.04-5.219c0,0-16.469-9.51-17.437-10.069c-0.968-0.559-1.933-0.22-1.933,0.948v41.02
						c0,0.876,0.69,1.253,1.531,0.768c0.841-0.486,17.84-10.301,17.84-10.301l9.04-5.219c0,0,7.67-4.428,8.689-5.016
						c1.019-0.589,0.922-1.396,0.061-1.86C71.094,35.665,63.204,31.076,63.204,31.077L63.204,31.077z"/>
				</defs>
				<clipPath id="SVGID_11_">
					<use xlink:href="#SVGID_10_"  overflow="visible"/>
				</clipPath>
				
					<linearGradient id="SVGID_12_" gradientUnits="userSpaceOnUse" x1="3689.2297" y1="-876.9907" x2="3689.2297" y2="-875.9966" gradientTransform="matrix(12 0 0 12 -44205.3945 10554.9648)">
					<stop  offset="0" style="stop-color:#F58979"/>
					<stop  offset="0.119" style="stop-color:#F6917A"/>
					<stop  offset="0.713" style="stop-color:#FCB878"/>
					<stop  offset="1" style="stop-color:#FEC975"/>
				</linearGradient>
				<path clip-path="url(#SVGID_11_)" fill="url(#SVGID_12_)" d="M63.204,31.077l-6.015,5.965l6.014,5.964l10.331-5.964
					L63.204,31.077z"/>
			</g>
		</g>
	</g>
	<path fill="#F9F9FA" d="M175.784,45.723c-0.842,0-1.608-0.155-2.303-0.465c-0.695-0.31-1.279-0.788-1.75-1.431h-0.141
		c0.094,0.754,0.141,1.469,0.141,2.144v5.315h-1.955V32.572h1.591l0.271,1.768h0.094c0.503-0.707,1.089-1.217,1.756-1.532
		s1.434-0.472,2.297-0.472c1.713,0,3.035,0.586,3.966,1.756c0.931,1.171,1.396,2.813,1.396,4.925c0,2.121-0.473,3.769-1.419,4.944
		C178.78,45.136,177.466,45.723,175.784,45.723L175.784,45.723z M175.501,33.997c-1.319,0-2.275,0.366-2.863,1.096
		c-0.589,0.73-0.892,1.894-0.908,3.489v0.436c0,1.815,0.303,3.114,0.908,3.895c0.605,0.782,1.576,1.172,2.91,1.172
		c1.116,0,1.991-0.451,2.623-1.354s0.948-2.149,0.948-3.736c0-1.61-0.316-2.846-0.948-3.706
		C177.539,34.427,176.648,33.997,175.501,33.997L175.501,33.997z M185.676,45.486h-1.956V27.15h1.956V45.486z M196.922,45.486
		l-0.389-1.838h-0.094c-0.645,0.81-1.286,1.358-1.927,1.644c-0.64,0.287-1.439,0.43-2.397,0.43c-1.281,0-2.284-0.33-3.011-0.99
		c-0.727-0.659-1.09-1.598-1.09-2.816c0-2.608,2.086-3.975,6.257-4.101l2.193-0.071v-0.801c0-1.013-0.218-1.762-0.655-2.245
		c-0.436-0.484-1.134-0.725-2.092-0.725c-1.077,0-2.295,0.33-3.653,0.99l-0.602-1.497c0.637-0.346,1.334-0.616,2.092-0.813
		c0.758-0.196,1.518-0.295,2.28-0.295c1.54,0,2.681,0.342,3.424,1.025c0.742,0.684,1.113,1.779,1.113,3.288v8.814L196.922,45.486
		L196.922,45.486L196.922,45.486z M192.503,44.108c1.217,0,2.173-0.334,2.869-1.002c0.695-0.668,1.043-1.603,1.043-2.805v-1.166
		l-1.957,0.082c-1.555,0.056-2.676,0.297-3.364,0.726c-0.687,0.428-1.031,1.094-1.031,1.997c0,0.707,0.214,1.245,0.642,1.614
		C191.134,43.924,191.732,44.108,192.503,44.108L192.503,44.108z M199.507,32.571h2.097l2.829,7.366
		c0.62,1.682,1.006,2.895,1.155,3.642h0.094c0.102-0.401,0.317-1.086,0.642-2.058c0.326-0.97,1.393-3.953,3.199-8.95h2.099
		l-5.551,14.707c-0.549,1.454-1.192,2.485-1.928,3.095c-0.734,0.609-1.636,0.912-2.703,0.912c-0.597,0-1.187-0.067-1.769-0.2v-1.567
		c0.432,0.094,0.915,0.141,1.45,0.141c1.344,0,2.302-0.754,2.875-2.263l0.719-1.838L199.507,32.571L199.507,32.571z M139.546,33.771
		c0.621,0.514,1.918,1.593,1.918,3.648c0,1.998-1.135,2.945-2.27,3.836c-0.351,0.351-0.756,0.73-0.756,1.325
		c0,0.593,0.405,0.918,0.703,1.161l0.973,0.755c1.188,1,2.268,1.919,2.268,3.784c0,2.539-2.458,5.105-7.104,5.105
		c-3.918,0-5.807-1.863-5.807-3.863c0-0.972,0.484-2.349,2.08-3.296c1.674-1.026,3.944-1.16,5.159-1.243
		c-0.379-0.486-0.811-0.999-0.811-1.835c0-0.459,0.135-0.729,0.27-1.055c-0.298,0.027-0.595,0.054-0.866,0.054
		c-2.862,0-4.483-2.134-4.483-4.24c0-1.243,0.568-2.621,1.728-3.62c1.54-1.269,3.377-1.486,4.837-1.486h5.564l-1.729,0.973
		L139.546,33.771L139.546,33.771L139.546,33.771z M137.628,45.767c-0.216-0.028-0.352-0.028-0.62-0.028
		c-0.243,0-1.704,0.056-2.837,0.434c-0.595,0.214-2.323,0.863-2.323,2.782c0,1.917,1.865,3.297,4.756,3.297
		c2.592,0,3.971-1.245,3.971-2.919C140.573,47.952,139.682,47.226,137.628,45.767L137.628,45.767z M138.412,40.633
		c0.62-0.622,0.674-1.486,0.674-1.972c0-1.945-1.161-4.97-3.403-4.97c-0.703,0-1.459,0.351-1.891,0.892
		c-0.458,0.567-0.595,1.296-0.595,1.999c0,1.81,1.054,4.809,3.378,4.809C137.25,41.39,137.978,41.066,138.412,40.633L138.412,40.633
		z M122.539,45.334c-4.288,0-6.58-3.345-6.58-6.366c0-3.534,2.885-6.553,6.986-6.553c3.963,0,6.445,3.101,6.445,6.365
		C129.39,41.962,126.937,45.334,122.539,45.334L122.539,45.334z M125.91,43.15c0.648-0.864,0.81-1.942,0.81-2.995
		c0-2.374-1.133-6.905-4.477-6.905c-0.89,0-1.779,0.351-2.427,0.919c-1.052,0.942-1.242,2.13-1.242,3.291
		c0,2.668,1.322,7.063,4.586,7.063C124.212,44.523,125.291,44.011,125.91,43.15L125.91,43.15z M107.92,45.334
		c-4.289,0-6.582-3.345-6.582-6.366c0-3.534,2.887-6.553,6.986-6.553c3.964,0,6.445,3.101,6.445,6.365
		C114.771,41.962,112.317,45.334,107.92,45.334z M111.292,43.15c0.647-0.864,0.81-1.942,0.81-2.995c0-2.374-1.133-6.905-4.479-6.905
		c-0.889,0-1.78,0.351-2.427,0.919c-1.052,0.942-1.241,2.13-1.241,3.291c0,2.668,1.321,7.063,4.586,7.063
		C109.594,44.523,110.672,44.011,111.292,43.15z M99.279,44.911l-3.878,0.895c-1.574,0.245-2.983,0.46-4.474,0.46
		c-7.485,0-10.331-5.505-10.331-9.816c0-5.26,4.039-10.14,10.955-10.14c1.465,0,2.874,0.216,4.148,0.569
		c2.033,0.57,2.982,1.274,3.58,1.681l-2.251,2.142l-0.948,0.216l0.678-1.085c-0.922-0.894-2.604-2.548-5.803-2.548
		c-4.285,0-7.512,3.255-7.512,8c0,5.097,3.688,9.896,9.598,9.896c1.737,0,2.63-0.352,3.445-0.678v-4.365l-4.094,0.217l2.169-1.167
		h5.749l-0.704,0.678c-0.191,0.164-0.217,0.219-0.271,0.433c-0.028,0.245-0.054,1.032-0.054,1.302L99.279,44.911L99.279,44.911
		L99.279,44.911z"/>
	<path fill="#F9F9FA" d="M148.117,44.13c-0.895-0.082-1.083-0.243-1.083-1.302V27.481c0.005-0.059,0.009-0.118,0.014-0.175
		c0.109-0.948,0.381-1.111,1.222-1.6h-3.879l-2.035,0.976h2.073v0.012l-0.001-0.01v16.741c0,0.541-0.107,0.623-0.732,1.436h4.8
		l1.003-0.595C149.04,44.211,148.578,44.185,148.117,44.13L148.117,44.13z M159.151,44.38c-0.295,0.162-0.592,0.351-0.886,0.485
		c-0.89,0.404-1.805,0.512-2.615,0.512c-0.86,0-2.207-0.056-3.582-1.051c-1.91-1.348-2.745-3.663-2.745-5.682
		c0-4.173,3.393-6.22,6.167-6.22c0.97,0,1.967,0.242,2.775,0.755c1.346,0.887,1.695,2.045,1.883,2.664l-6.327,2.559l-2.074,0.161
		c0.672,3.42,2.988,5.411,5.547,5.411c1.373,0,2.37-0.484,3.285-0.941L159.151,44.38L159.151,44.38z M156.62,36.354
		c0.511-0.188,0.78-0.35,0.78-0.727c0-1.077-1.211-2.316-2.667-2.316c-1.078,0-3.096,0.836-3.096,3.743
		c0,0.458,0.054,0.942,0.082,1.429L156.62,36.354L156.62,36.354z M161.75,32.607v1.777h-0.216v-1.777h-0.588v-0.184h1.392v0.184
		H161.75L161.75,32.607z M164.173,34.384v-1.793h-0.01l-0.547,1.793h-0.169l-0.552-1.793h-0.007v1.793h-0.196v-1.961h0.336
		l0.499,1.585h0.007l0.492-1.585h0.341v1.961H164.173L164.173,34.384z"/>
	<path fill="#F8FAFB" d="M85.981,21.03h-1.348c0-0.186-0.128-0.71-0.383-1.575h-1.945c-0.264,0.85-0.396,1.376-0.396,1.575h-1.268
		c0-0.109,0.328-1.008,0.983-2.695s0.983-2.617,0.983-2.787H84.2c0,0.16,0.297,1.075,0.891,2.747
		C85.684,19.967,85.981,20.878,85.981,21.03z M84.036,18.651c-0.48-1.448-0.72-2.231-0.72-2.349h-0.067
		c0,0.109-0.248,0.892-0.745,2.349L84.036,18.651L84.036,18.651z M91.411,21.03h-1.04c0-0.115-0.386-0.723-1.158-1.823
		c-0.808-1.159-1.269-1.952-1.381-2.379h-0.067c0.07,0.615,0.105,1.171,0.105,1.668c0,0.693,0.019,1.539,0.059,2.535h-1.036
		c0.042-0.87,0.063-1.826,0.063-2.867c0-1.025-0.021-1.896-0.063-2.615h1.25c0,0.149,0.346,0.743,1.04,1.781
		c0.738,1.103,1.162,1.851,1.272,2.244h0.063c-0.067-0.626-0.101-1.187-0.101-1.684c0-0.761-0.019-1.541-0.059-2.341h1.053
		c-0.04,0.696-0.059,1.568-0.059,2.615C91.352,19.218,91.372,20.173,91.411,21.03z M97.514,18.099c0,0.797-0.255,1.493-0.766,2.088
		c-0.511,0.596-1.227,0.892-2.147,0.892c-0.415,0-0.988-0.017-1.718-0.051c0.037-0.848,0.055-1.804,0.055-2.867
		c0-1.022-0.018-1.893-0.055-2.615h0.737c0.121,0,0.3-0.004,0.539-0.012c0.238-0.008,0.394-0.012,0.467-0.012
		c1.013,0,1.748,0.253,2.204,0.758C97.286,16.786,97.514,17.392,97.514,18.099L97.514,18.099z M96.364,18.28
		c0-0.539-0.157-0.993-0.472-1.363c-0.314-0.369-0.794-0.554-1.44-0.554c-0.121,0-0.286,0.012-0.497,0.038
		c0.028,0.562,0.042,1.148,0.042,1.76c0,0.671,0.014,1.336,0.042,1.996c0.18,0.036,0.363,0.055,0.547,0.055
		c0.603,0,1.051-0.188,1.341-0.563C96.218,19.276,96.364,18.819,96.364,18.28L96.364,18.28z M103.141,21.03h-1.246
		c-0.326-0.994-0.576-1.607-0.749-1.84c-0.174-0.233-0.454-0.35-0.842-0.35c-0.163,0-0.319,0.002-0.467,0.004
		c0,0.722,0.012,1.45,0.038,2.185h-1.171c0.037-0.848,0.055-1.804,0.055-2.867c0-1.022-0.018-1.893-0.055-2.615h0.728
		c0.085,0,0.26-0.004,0.528-0.012s0.516-0.012,0.743-0.012c1.288,0,1.933,0.441,1.933,1.322c0,0.699-0.368,1.186-1.103,1.461v0.063
		c0.284,0.079,0.532,0.3,0.745,0.663C102.492,19.396,102.779,20.062,103.141,21.03z M101.563,17.156
		c0-0.558-0.359-0.838-1.078-0.838c-0.264,0-0.497,0.02-0.699,0.059c0.031,0.435,0.046,1.002,0.046,1.701
		c0.154,0.006,0.285,0.008,0.392,0.008C101.116,18.087,101.563,17.777,101.563,17.156z M109.177,18.188
		c0,0.862-0.264,1.576-0.792,2.143s-1.181,0.85-1.958,0.85c-0.741,0-1.361-0.26-1.861-0.781s-0.749-1.182-0.749-1.985
		c0-0.862,0.264-1.576,0.792-2.143c0.528-0.567,1.18-0.85,1.958-0.85c0.741,0,1.361,0.259,1.861,0.779
		C108.927,16.72,109.177,17.382,109.177,18.188L109.177,18.188z M108.015,18.31c0-0.587-0.15-1.062-0.45-1.428
		c-0.301-0.365-0.671-0.547-1.112-0.547c-0.41,0-0.758,0.184-1.044,0.551c-0.286,0.368-0.43,0.832-0.43,1.394
		c0,0.584,0.151,1.059,0.453,1.425s0.671,0.55,1.11,0.55c0.41,0,0.758-0.184,1.044-0.554
		C107.872,19.332,108.015,18.868,108.015,18.31L108.015,18.31z M111.558,21.03h-1.191c0.037-0.87,0.055-1.826,0.055-2.867
		c0-1.025-0.018-1.896-0.055-2.615h1.191c-0.037,0.707-0.055,1.579-0.055,2.615C111.503,19.221,111.521,20.177,111.558,21.03z
		 M117.66,18.099c0,0.797-0.256,1.493-0.766,2.088c-0.511,0.596-1.227,0.892-2.147,0.892c-0.415,0-0.988-0.017-1.718-0.051
		c0.037-0.848,0.055-1.804,0.055-2.867c0-1.022-0.018-1.893-0.055-2.615h0.737c0.121,0,0.3-0.004,0.539-0.012
		c0.238-0.008,0.394-0.012,0.467-0.012c1.013,0,1.748,0.253,2.204,0.758C117.432,16.786,117.66,17.392,117.66,18.099L117.66,18.099z
		 M116.512,18.28c0-0.539-0.157-0.993-0.472-1.363c-0.314-0.369-0.794-0.554-1.44-0.554c-0.121,0-0.286,0.012-0.497,0.038
		c0.028,0.562,0.042,1.148,0.042,1.76c0,0.671,0.014,1.336,0.042,1.996c0.18,0.036,0.363,0.055,0.547,0.055
		c0.603,0,1.051-0.188,1.341-0.563C116.365,19.276,116.512,18.819,116.512,18.28z M125.757,21.03h-1.348
		c0-0.186-0.128-0.71-0.383-1.575h-1.945c-0.264,0.85-0.396,1.376-0.396,1.575h-1.267c0-0.109,0.327-1.008,0.983-2.695
		c0.655-1.687,0.983-2.617,0.983-2.787h1.592c0,0.16,0.297,1.075,0.891,2.747C125.46,19.967,125.757,20.878,125.757,21.03
		L125.757,21.03z M123.812,18.651c-0.48-1.448-0.72-2.231-0.72-2.349h-0.067c0,0.109-0.248,0.892-0.745,2.349L123.812,18.651
		L123.812,18.651z M130.669,16.983c0,0.671-0.249,1.166-0.747,1.486s-1.109,0.48-1.834,0.48c-0.132,0-0.226-0.003-0.282-0.008
		c0,0.528,0.015,1.224,0.046,2.088h-1.184c0.037-0.811,0.055-1.767,0.055-2.867c0-1.01-0.018-1.882-0.055-2.615h0.733
		c0.104,0,0.303-0.004,0.598-0.012c0.295-0.008,0.55-0.012,0.766-0.012c0.533,0,0.984,0.121,1.351,0.362
		C130.484,16.126,130.669,16.492,130.669,16.983L130.669,16.983z M129.582,17.215c0-0.6-0.399-0.901-1.196-0.901
		c-0.2,0-0.41,0.021-0.632,0.063c0.031,0.531,0.046,1.131,0.046,1.802c0.07,0.006,0.152,0.008,0.244,0.008
		C129.07,18.188,129.582,17.863,129.582,17.215z M135.719,16.983c0,0.671-0.249,1.166-0.747,1.486s-1.11,0.48-1.834,0.48
		c-0.132,0-0.226-0.003-0.282-0.008c0,0.528,0.015,1.224,0.046,2.088h-1.184c0.037-0.811,0.055-1.767,0.055-2.867
		c0-1.01-0.018-1.882-0.055-2.615h0.733c0.104,0,0.303-0.004,0.598-0.012c0.295-0.008,0.55-0.012,0.766-0.012
		c0.533,0,0.984,0.121,1.351,0.362C135.535,16.126,135.719,16.492,135.719,16.983L135.719,16.983z M134.633,17.215
		c0-0.6-0.399-0.901-1.196-0.901c-0.2,0-0.41,0.021-0.632,0.063c0.031,0.531,0.046,1.131,0.046,1.802
		c0.07,0.006,0.152,0.008,0.244,0.008C134.12,18.188,134.633,17.863,134.633,17.215z M143.976,18.188
		c0,0.862-0.264,1.576-0.792,2.143s-1.181,0.85-1.958,0.85c-0.741,0-1.361-0.26-1.861-0.781c-0.499-0.521-0.749-1.182-0.749-1.985
		c0-0.862,0.264-1.576,0.792-2.143c0.528-0.567,1.181-0.85,1.958-0.85c0.741,0,1.361,0.259,1.861,0.779
		C143.726,16.72,143.976,17.382,143.976,18.188L143.976,18.188z M142.813,18.31c0-0.587-0.15-1.062-0.45-1.428
		c-0.3-0.365-0.671-0.547-1.112-0.547c-0.41,0-0.758,0.184-1.044,0.551c-0.286,0.368-0.43,0.832-0.43,1.394
		c0,0.584,0.151,1.059,0.453,1.425s0.671,0.55,1.109,0.55c0.41,0,0.758-0.184,1.044-0.554
		C142.67,19.332,142.813,18.868,142.813,18.31L142.813,18.31z M149.683,21.03h-1.04c0-0.115-0.386-0.723-1.158-1.823
		c-0.808-1.159-1.269-1.952-1.381-2.379h-0.067c0.07,0.615,0.105,1.171,0.105,1.668c0,0.693,0.019,1.539,0.059,2.535h-1.036
		c0.042-0.87,0.063-1.826,0.063-2.867c0-1.025-0.021-1.896-0.063-2.615h1.25c0,0.149,0.347,0.743,1.04,1.781
		c0.739,1.103,1.162,1.851,1.272,2.244h0.063c-0.067-0.626-0.101-1.187-0.101-1.684c0-0.761-0.019-1.541-0.059-2.341h1.053
		c-0.04,0.696-0.059,1.568-0.059,2.615C149.624,19.218,149.644,20.173,149.683,21.03z"/>
</g>
</svg>
