<?xml version="1.0" encoding="utf-8"?>
<!-- Generator: Adobe Illustrator 17.0.0, SVG Export Plug-In . SVG Version: 6.00 Build 0)  -->
<!DOCTYPE svg PUBLIC "-//W3C//DTD SVG 1.1//EN" "http://www.w3.org/Graphics/SVG/1.1/DTD/svg11.dtd">
<svg version="1.1" id="Layer_1" xmlns="http://www.w3.org/2000/svg" xmlns:xlink="http://www.w3.org/1999/xlink" x="0px" y="0px"
	 width="65px" height="56px" viewBox="0 0 65 56" enable-background="new 0 0 65 56" xml:space="preserve">
<path fill="#27AAE1" d="M46.631,13.78l-6.771,6.78c-0.127,0.127-0.294,0.191-0.461,0.191s-0.333-0.064-0.462-0.191
	c-0.255-0.255-0.255-0.67,0-0.925l6.771-6.78c0.255-0.255,0.668-0.255,0.923,0C46.886,13.111,46.886,13.525,46.631,13.78
	L46.631,13.78z M48.473,15.595l-6.771,6.78c-0.127,0.127-0.294,0.191-0.462,0.191c-0.167,0-0.333-0.064-0.461-0.191
	c-0.255-0.255-0.255-0.67,0-0.925l6.771-6.78c0.255-0.255,0.668-0.255,0.923,0S48.728,15.34,48.473,15.595L48.473,15.595z
	 M50.491,17.702l-8.405,8.416c-1.306,1.309-3.248,1.733-4.964,1.125l-2.117,2.389l10.822,9.619c0.074,0.063,0.139,0.124,0.202,0.186
	c1.323,1.325,1.323,3.482,0,4.809c-0.662,0.663-1.532,0.993-2.401,0.993c-0.87,0-1.74-0.33-2.401-0.993
	c-0.063-0.063-0.124-0.128-0.186-0.202l-9.405-10.611l-9.407,10.611c-0.061,0.074-0.122,0.139-0.185,0.202
	c-0.662,0.663-1.532,0.993-2.401,0.993c-0.87,0-1.74-0.33-2.401-0.993c-0.641-0.643-0.995-1.497-0.995-2.404
	c0-0.909,0.354-1.763,0.995-2.404c0.061-0.063,0.128-0.124,0.202-0.186l7.711-6.854c0.269-0.241,0.682-0.214,0.921,0.055
	c0.239,0.271,0.216,0.684-0.055,0.923l-7.716,6.858c-0.005,0.003-0.008,0.006-0.011,0.009c-0.048,0.041-0.091,0.08-0.128,0.117
	c-0.396,0.397-0.613,0.923-0.613,1.481c0,0.559,0.217,1.084,0.612,1.48c0.815,0.815,2.142,0.815,2.957,0
	c0.039-0.039,0.077-0.081,0.117-0.13c0.003-0.003,0.006-0.006,0.009-0.011l12.343-13.925c0.002-0.002,0.002-0.003,0.003-0.003
	c0.002-0.002,0.003-0.003,0.003-0.005l2.857-3.221c0.192-0.219,0.507-0.282,0.77-0.156c1.32,0.632,2.904,0.36,3.939-0.677
	l8.406-8.416c0.255-0.255,0.668-0.255,0.923,0C50.746,17.033,50.746,17.447,50.491,17.702L50.491,17.702z M32.508,32.448
	l9.515,10.733c0.003,0.005,0.006,0.008,0.009,0.011c0.041,0.049,0.078,0.089,0.117,0.128c0.815,0.817,2.142,0.817,2.955,0.002
	c0.815-0.817,0.815-2.145,0-2.96c-0.038-0.039-0.08-0.078-0.128-0.119c-0.003-0.003-0.008-0.006-0.011-0.009L34.136,30.61
	L32.508,32.448L32.508,32.448z M44.673,11.877l-8.406,8.416c-1.036,1.036-1.308,2.622-0.676,3.944
	c0.125,0.263,0.061,0.579-0.156,0.771l-5.815,5.169c-0.124,0.109-0.278,0.164-0.432,0.164c-0.181,0-0.36-0.074-0.49-0.221
	c-0.031-0.034-2.461-2.777-2.461-2.777c-2.53,1.288-5.601,0.818-7.641-1.225c-2.026-2.027-3.451-4.377-4.013-6.614
	c-0.588-2.336-0.196-4.34,1.103-5.64c1.3-1.302,3.299-1.693,5.632-1.106c2.236,0.565,4.581,1.991,6.606,4.019
	c2.04,2.043,2.509,5.117,1.223,7.65l2.486,2.209l2.586-2.298c-0.609-1.718-0.185-3.662,1.123-4.97l8.404-8.416
	c0.255-0.257,0.668-0.257,0.925,0C44.928,11.207,44.928,11.622,44.673,11.877L44.673,11.877z M27.888,25.057
	c-0.236-0.21-0.288-0.562-0.122-0.832c1.292-2.096,0.978-4.778-0.763-6.522c-1.862-1.863-3.992-3.168-6.003-3.675
	c-1.868-0.471-3.428-0.2-4.388,0.762c-0.962,0.962-1.233,2.523-0.762,4.396c0.505,2.012,1.81,4.146,3.67,6.009
	c1.741,1.744,4.419,2.059,6.514,0.767c0.269-0.167,0.62-0.116,0.831,0.122l2.376,2.681l1.409-1.253L27.888,25.057L27.888,25.057z"/>
</svg>
