<?xml version="1.0" encoding="utf-8"?>
<!-- Generator: Adobe Illustrator 17.0.0, SVG Export Plug-In . SVG Version: 6.00 Build 0)  -->
<!DOCTYPE svg PUBLIC "-//W3C//DTD SVG 1.1//EN" "http://www.w3.org/Graphics/SVG/1.1/DTD/svg11.dtd">
<svg version="1.1" id="Layer_1" xmlns="http://www.w3.org/2000/svg" xmlns:xlink="http://www.w3.org/1999/xlink" x="0px" y="0px"
	 width="611.997px" height="106.762px" viewBox="0 342.619 611.997 106.762" enable-background="new 0 342.619 611.997 106.762"
	 xml:space="preserve">
<g>
	<polygon fill="#EDEDED" points="76.349,378.891 63.168,378.803 63.43,406.592 29.475,406.784 29.475,419.906 76.349,419.641 	"/>
	<polygon fill="#EDEDED" points="13.602,356.216 87.667,356.309 87.594,342.79 0.091,342.746 0.083,431.894 13.6,431.897 	"/>
	<polygon fill="#EDEDED" points="105.868,342.619 92.295,342.858 92.37,356.374 105.944,356.135 	"/>
	<polygon fill="#EDEDED" points="105.863,360.578 92.349,360.623 92.612,435.769 0,435.865 0.075,449.381 106.175,449.228 	"/>
	<g>
		<polygon fill="#EDEDED" points="17.357,431.671 17.336,360.399 26.726,360.397 26.742,422.325 76.367,422.556 76.323,431.944 		
			"/>
	</g>
	<g>
		<polygon fill="#EDEDED" points="79.522,431.468 79.347,369.712 29.413,369.241 29.509,359.851 88.712,360.417 88.909,431.442 		
			"/>
	</g>
	<polygon fill="#EDEDED" points="76.349,379.208 63.168,379.12 63.246,387.292 76.349,389.913 	"/>
	<polygon fill="#EDEDED" points="106.11,428.964 92.601,432.38 92.638,435.769 106.152,436.099 	"/>
	<polygon fill="#EDEDED" points="76.349,384.564 76.349,371.442 29.475,371.663 29.475,411.976 42.407,412.02 42.711,384.725 	"/>
	<polygon fill="#EDEDED" points="42.527,403.692 29.475,401.073 29.475,411.778 42.605,411.867 	"/>
	<path fill="#EDEDED" d="M50.516,416.359c-2.978-1.928-4.633-4.698-4.656-7.805l-0.013-1.863l-16.369,0.094v13.121l26.292-0.148
		L50.516,416.359z"/>
	<g>
		<path fill="#EDEDED" d="M155.442,379.421c0,3.349-0.972,5.76-2.913,7.231c-1.944,1.473-4.22,2.211-6.831,2.211
			c-1.273,0-2.494-0.184-3.666-0.553c-1.172-0.369-2.209-0.938-3.113-1.71c-0.904-0.767-1.624-1.741-2.159-2.913
			c-0.535-1.172-0.803-2.596-0.803-4.269c0-1.606,0.268-3.014,0.803-4.217c0.535-1.206,1.255-2.175,2.159-2.913
			c0.904-0.735,1.941-1.289,3.113-1.658c1.172-0.366,2.396-0.553,3.666-0.553c2.611,0,4.887,0.738,6.831,2.211
			C154.47,373.765,155.442,376.142,155.442,379.421z M137.16,443.904v-48.209h17.076v48.212H137.16V443.904z"/>
		<path fill="#EDEDED" d="M184.668,373.596v53.736h32.141v16.572h-50.722v-70.308H184.668z"/>
		<path fill="#EDEDED" d="M241.618,379.421c0,3.349-0.972,5.76-2.913,7.231c-1.944,1.473-4.22,2.211-6.831,2.211
			c-1.273,0-2.494-0.184-3.666-0.553c-1.172-0.369-2.209-0.938-3.113-1.71c-0.904-0.767-1.624-1.741-2.159-2.913
			c-0.535-1.172-0.803-2.596-0.803-4.269c0-1.606,0.268-3.014,0.803-4.217c0.535-1.206,1.255-2.175,2.159-2.913
			c0.904-0.735,1.941-1.289,3.113-1.658c1.172-0.366,2.396-0.553,3.666-0.553c2.611,0,4.887,0.738,6.831,2.211
			C240.646,373.765,241.618,376.142,241.618,379.421z M223.338,443.904v-48.209h17.076v48.212h-17.076V443.904z"/>
		<path fill="#EDEDED" d="M272.603,396.095c2.51-1.271,5.373-1.91,8.587-1.91c3.282,0,6.142,0.52,8.59,1.556
			c2.442,1.039,4.451,2.461,6.026,4.269c1.572,1.808,2.744,3.918,3.516,6.327c0.769,2.411,1.154,4.955,1.154,7.631v29.933h-17.074
			v-27.62c0-2.544-0.689-4.435-2.06-5.675c-1.375-1.239-3.131-1.858-5.272-1.858c-1.944,0-3.617,0.468-5.023,1.406
			c-1.406,0.941-2.479,1.876-3.214,2.814v30.936h-17.076v-48.209h15.068v5.524C267.832,399.075,270.09,397.368,272.603,396.095z"/>
		<path fill="#EDEDED" d="M342.757,443.904l-11.851-18.279h-3.617v18.279h-17.074v-70.308h17.074v38.972h3.817l10.547-16.873h19.082
			l-15.668,23.704l16.673,24.507h-18.983V443.904z"/>
		<path fill="#EDEDED" d="M361.743,419.799c0-4.687,0.818-8.671,2.461-11.952c1.64-3.282,3.716-5.924,6.228-7.935
			c2.51-2.009,5.254-3.464,8.234-4.37c2.98-0.904,5.776-1.356,8.387-1.356c5.155,0,9.442,0.922,12.856,2.762
			c3.417,1.842,6.059,4.217,7.935,7.13c1.873,2.913,3.014,6.194,3.417,9.842c0.4,3.651,0.166,7.317-0.704,10.999h-31.541
			c0.468,1.338,1.206,2.479,2.209,3.414c1.006,0.941,2.193,1.707,3.565,2.31c1.372,0.603,2.879,1.039,4.521,1.307
			c1.64,0.27,3.331,0.403,5.072,0.403c2.746,0,5.238-0.203,7.483-0.603c2.242-0.403,4.37-0.972,6.379-1.71v12.656
			c-2.279,0.803-4.872,1.458-7.785,1.959c-2.913,0.501-6.278,0.754-10.094,0.754c-3.949,0-7.668-0.553-11.149-1.658
			c-3.482-1.104-6.511-2.744-9.089-4.921c-2.578-2.175-4.62-4.854-6.127-8.034C362.494,427.618,361.743,423.951,361.743,419.799z
			 M394.988,414.675c0.132-0.603,0.132-1.356,0-2.261c-0.135-0.904-0.468-1.79-1.003-2.663c-0.538-0.868-1.341-1.621-2.411-2.261
			c-1.071-0.637-2.445-0.956-4.118-0.956c-2.344,0-4.37,0.72-6.077,2.159c-1.707,1.439-2.562,3.432-2.562,5.976h16.172V414.675z"/>
		<path fill="#EDEDED" d="M610.327,404.851c-1.122-2.822-2.689-5.249-4.654-7.218c-1.972-1.972-4.326-3.492-7.003-4.516
			c-5.236-1.995-11.638-1.954-16.603-0.171c-2.367,0.85-4.555,1.946-6.506,3.256c-1.008,0.681-1.957,1.398-2.83,2.146v-5.734h-8.372
			v54.372h8.572v-36.317c0.65-1.099,1.45-2.24,2.383-3.401c1.078-1.333,2.357-2.552,3.801-3.625c1.434-1.06,3.108-1.954,4.976-2.655
			c3.341-1.255,7.743-1.411,11.274-0.06c1.624,0.624,3.006,1.504,4.22,2.692c1.177,1.148,2.115,2.632,2.788,4.417
			c0.702,1.845,1.055,4.009,1.055,6.436v32.51h8.569v-32.708C612,410.825,611.436,407.655,610.327,404.851z"/>
		<path fill="#EDEDED" d="M434.371,395.037c0,0,13.311-6.561,35.792,6.21c17.861,10.146,18.929,36.21,44.234,37.855
			c25.305,1.645,31.065-15.842,31.065-15.842s0.618,24.481-34.358,23.866c-34.976-0.616-40.549-48.903-71.072-37.873"/>
		<g>
			<path fill="#EDEDED" d="M454.448,413.041v12.282c-0.738,1.541-1.959,2.928-3.666,4.168c-1.707,1.239-3.734,1.858-6.077,1.858
				c-1.808,0-3.365-0.333-4.672-1.003c-1.307-0.668-2.377-1.556-3.214-2.663c-0.837-1.104-1.455-2.344-1.858-3.716
				c-0.4-1.372-0.603-2.762-0.603-4.168c0-1.406,0.2-2.796,0.603-4.168c0.403-1.372,1.021-2.611,1.858-3.716
				c0.837-1.107,1.907-1.993,3.214-2.663c0.171-0.088,0.382-0.122,0.561-0.197v-14.597c0-0.088,0.021-0.161,0.023-0.247
				c-0.184-0.003-0.348-0.023-0.535-0.023c-4.017,0-7.501,0.754-10.445,2.261c-2.946,1.507-5.373,3.464-7.28,5.875
				c-1.91,2.411-3.315,5.158-4.22,8.237c-0.904,3.082-1.354,6.161-1.354,9.24c0,3.149,0.452,6.244,1.354,9.292
				c0.904,3.048,2.313,5.776,4.22,8.187c1.907,2.411,4.334,4.37,7.28,5.875c2.947,1.507,6.428,2.261,10.445,2.261
				c4.352,0,7.868-0.839,10.547-2.51c2.679-1.673,4.62-3.516,5.825-5.524v6.527h15.065V427.47
				C466.97,421.169,458.481,415.512,454.448,413.041z"/>
			<polygon fill="#EDEDED" points="471.522,407.377 471.522,373.596 454.448,373.596 454.448,399.522 			"/>
		</g>
		<path fill="#EDEDED" d="M555.032,394.728c-1.634-4.677-4.116-8.925-7.379-12.625c-3.274-3.713-7.41-6.766-12.287-9.081
			c-4.913-2.331-10.713-3.513-17.24-3.513c-6.527,0-12.329,1.18-17.24,3.513c-4.877,2.313-9.011,5.368-12.287,9.081
			c-3.263,3.697-5.745,7.946-7.379,12.625c-0.574,1.642-1.008,3.3-1.38,4.963c1.915,1.624,5.015,4.389,7.696,7.361
			c0.166-3.162,0.772-6.327,1.863-9.44c1.265-3.625,3.199-6.932,5.737-9.835c2.515-2.876,5.721-5.238,9.533-7.023
			c3.791-1.772,8.317-2.674,13.459-2.674c5.142,0,9.668,0.899,13.457,2.671c3.814,1.788,7.021,4.15,9.536,7.026
			c2.539,2.902,4.469,6.21,5.74,9.835c1.284,3.671,1.938,7.418,1.938,11.136s-0.652,7.462-1.941,11.136
			c-1.265,3.622-3.196,6.935-5.734,9.837c-2.518,2.874-5.727,5.238-9.538,7.023c-3.781,1.772-8.309,2.671-13.457,2.671
			c-5.147,0-9.674-0.899-13.459-2.674c-3.809-1.785-7.018-4.147-9.533-7.021c-0.21-0.239-15.45-20.181-15.45-20.181
			c8.933,17.544,16.328,32.622,21.202,34.932c4.908,2.331,10.71,3.51,17.24,3.51c6.53,0,12.332-1.18,17.237-3.51
			c4.88-2.313,9.016-5.366,12.293-9.081c3.263-3.697,5.745-7.946,7.379-12.625c1.614-4.622,2.429-9.341,2.429-14.021
			C557.464,404.072,556.645,399.353,555.032,394.728z"/>
	</g>
</g>
</svg>
