<?xml version="1.0" encoding="utf-8"?>
<!-- Generator: Adobe Illustrator 17.0.0, SVG Export Plug-In . SVG Version: 6.00 Build 0)  -->
<!DOCTYPE svg PUBLIC "-//W3C//DTD SVG 1.1//EN" "http://www.w3.org/Graphics/SVG/1.1/DTD/svg11.dtd">
<svg version="1.1" id="Layer_1" xmlns="http://www.w3.org/2000/svg" xmlns:xlink="http://www.w3.org/1999/xlink" x="0px" y="0px"
	 width="65px" height="56px" viewBox="0 0 65 56" enable-background="new 0 0 65 56" xml:space="preserve">
<g>
	<path fill="#27AAE1" d="M48.081,32.495v-8.999c1.855-0.352,3.255-1.984,3.255-3.942c0-2.224-1.803-4.027-4.027-4.027
		c-1.211,0-2.293,0.533-3.031,1.382l-7.96-4.611c0.138-0.404,0.215-0.842,0.215-1.297c0-2.224-1.803-4.027-4.027-4.027
		s-4.027,1.803-4.027,4.027c0,0.455,0.077,0.885,0.215,1.288l-7.96,4.611c-0.738-0.841-1.821-1.382-3.031-1.382
		c-2.224,0-4.028,1.803-4.028,4.027c0,1.923,1.357,3.538,3.16,3.933l0.009,9.034c-1.812,0.395-3.177,2.009-3.177,3.933
		c0,2.224,1.803,4.027,4.027,4.027c1.185,0,2.25-0.515,2.988-1.331l7.986,4.611c-0.129,0.395-0.198,0.807-0.198,1.245
		c0,2.224,1.803,4.028,4.027,4.028s4.027-1.803,4.027-4.028c0-0.438-0.069-0.85-0.197-1.245l7.986-4.611
		c0.738,0.816,1.803,1.331,2.988,1.331c2.224,0,4.027-1.803,4.027-4.027C51.327,34.496,49.928,32.856,48.081,32.495z M47.309,17.081
		c1.365,0,2.473,1.108,2.473,2.473c0,1.366-1.108,2.473-2.473,2.473c-1.366,0-2.473-1.107-2.473-2.473
		C44.835,18.189,45.952,17.081,47.309,17.081z M15.227,19.554c0-1.365,1.108-2.473,2.473-2.473s2.473,1.108,2.473,2.473
		c0,1.366-1.108,2.473-2.473,2.473C16.335,22.027,15.227,20.92,15.227,19.554z M32.504,47.471c-1.365,0-2.473-1.108-2.473-2.473
		c0-1.365,1.108-2.473,2.473-2.473c1.365,0,2.473,1.108,2.473,2.473C34.977,46.364,33.869,47.471,32.504,47.471z M35.57,42.396
		c-0.738-0.867-1.837-1.426-3.065-1.426c-1.228,0-2.327,0.55-3.066,1.426l-7.952-4.585c0.155-0.421,0.241-0.885,0.241-1.357
		c0-1.984-1.434-3.632-3.323-3.967l-0.009-8.974c1.889-0.326,3.332-1.983,3.332-3.967c0-0.455-0.078-0.893-0.215-1.297l7.96-4.611
		c0.738,0.85,1.829,1.383,3.04,1.383c1.21,0,2.293-0.533,3.031-1.383l7.96,4.611c-0.138,0.404-0.215,0.842-0.215,1.297
		c0,1.949,1.4,3.589,3.246,3.95v8.999c-1.846,0.361-3.246,1.992-3.246,3.95c0,0.481,0.086,0.936,0.24,1.357L35.57,42.396z"/>
	<path fill="#27AAE1" d="M36.257,31.113v-2.808c0.472-0.455,0.738-1.082,0.738-1.752v-3.684c0-2.258-1.838-4.096-4.096-4.096h-0.79
		c-2.258,0-4.096,1.837-4.096,4.096v3.684c0,0.67,0.275,1.297,0.738,1.752v2.808c-0.893,0.464-3.04,1.64-5.049,3.289
		c-0.335,0.275-0.378,0.764-0.103,1.099s0.764,0.378,1.099,0.103c2.224-1.829,4.629-3.04,5.092-3.263
		c0.327-0.163,0.524-0.481,0.524-0.85v-3.555c0-0.258-0.129-0.507-0.343-0.644c-0.249-0.163-0.395-0.438-0.395-0.739v-3.684
		c0-1.4,1.142-2.542,2.542-2.542h0.79c1.4,0,2.542,1.142,2.542,2.542v3.684c0,0.292-0.146,0.567-0.395,0.739
		c-0.215,0.146-0.344,0.386-0.344,0.644v3.555c0,0.361,0.206,0.687,0.533,0.85c0.464,0.223,2.868,1.443,5.092,3.263
		c0.146,0.12,0.318,0.18,0.489,0.18c0.223,0,0.447-0.094,0.601-0.283c0.275-0.335,0.223-0.825-0.103-1.099
		C39.297,32.753,37.15,31.568,36.257,31.113L36.257,31.113z"/>
</g>
</svg>
