<?xml version="1.0" encoding="utf-8"?>
<!-- Generator: Adobe Illustrator 17.0.0, SVG Export Plug-In . SVG Version: 6.00 Build 0)  -->
<!DOCTYPE svg PUBLIC "-//W3C//DTD SVG 1.1//EN" "http://www.w3.org/Graphics/SVG/1.1/DTD/svg11.dtd">
<svg version="1.1" id="Layer_1" xmlns="http://www.w3.org/2000/svg" xmlns:xlink="http://www.w3.org/1999/xlink" x="0px" y="0px"
	 width="65px" height="56px" viewBox="0 0 65 56" enable-background="new 0 0 65 56" xml:space="preserve">
<linearGradient id="SVGID_1_" gradientUnits="userSpaceOnUse" x1="12.9787" y1="28" x2="52.0213" y2="28">
	<stop  offset="0" style="stop-color:#22A9E0"/>
	<stop  offset="1" style="stop-color:#00A79C"/>
</linearGradient>
<path fill="url(#SVGID_1_)" d="M49.581,39.397h-0.812v2.442c0,0.449-0.364,0.813-0.813,0.813h-8.135
	c-0.449,0-0.813-0.364-0.813-0.813v-2.442H37.38v2.442c0,0.449-0.365,0.813-0.813,0.813H21.925c-0.449,0-0.814-0.364-0.814-0.813
	v-2.442H17.86v4.069c0,0.449-0.365,0.815-0.813,0.815s-0.814-0.366-0.814-0.815v-5.698h-2.44c-0.449,0-0.813-0.365-0.813-0.813
	v-6.513c0-0.449,0.364-0.814,0.813-0.814h2.44V28h-2.44c-0.449,0-0.813-0.365-0.813-0.813v-6.513c0-0.449,0.364-0.813,0.813-0.813
	h2.44v-6.513h-2.44c-0.449,0-0.813-0.364-0.813-0.815c0-0.449,0.364-0.814,0.813-0.814h3.254c0.449,0,0.813,0.365,0.813,0.814v5.699
	h31.721c1.345,0,2.44,1.095,2.44,2.442v16.281C52.021,38.3,50.926,39.397,49.581,39.397L49.581,39.397z M16.233,21.487h-1.627v4.884
	h1.627V21.487L16.233,21.487z M16.233,31.256h-1.627v4.884h1.627V31.256L16.233,31.256z M40.634,41.024h6.508v-1.627h-6.508V41.024
	L40.634,41.024z M22.739,41.024h13.014v-1.627H22.739V41.024L22.739,41.024z M50.394,20.674c0-0.449-0.365-0.813-0.813-0.813H17.86
	v17.908h31.721c0.449,0,0.813-0.365,0.813-0.813V20.674L50.394,20.674z M31.687,28h-0.814v1.629h0.814
	c0.449,0,0.813,0.365,0.813,0.814s-0.365,0.813-0.813,0.813h-0.814v0.815c0,0.449-0.365,0.814-0.813,0.814h-0.813v0.813
	c0,0.451-0.365,0.815-0.814,0.815s-0.813-0.364-0.813-0.815v-0.813h-1.627v0.813c0,0.451-0.364,0.815-0.813,0.815
	c-0.449,0-0.813-0.364-0.813-0.815v-0.813h-0.814c-0.449,0-0.813-0.365-0.813-0.814v-0.815h-0.813c-0.449,0-0.814-0.365-0.814-0.813
	s0.365-0.814,0.814-0.814h0.813V28h-0.813c-0.449,0-0.814-0.365-0.814-0.813c0-0.451,0.365-0.815,0.814-0.815h0.813v-0.813
	c0-0.451,0.365-0.815,0.813-0.815h0.814v-0.813c0-0.449,0.365-0.814,0.813-0.814c0.449,0,0.813,0.365,0.813,0.814v0.813h1.627
	v-0.813c0-0.449,0.365-0.814,0.813-0.814s0.814,0.365,0.814,0.814v0.813h0.813c0.449,0,0.813,0.365,0.813,0.815v0.813h0.814
	c0.449,0,0.813,0.365,0.813,0.815C32.501,27.636,32.136,28,31.687,28L31.687,28z M29.247,26.371h-4.881v4.884h4.881V26.371
	L29.247,26.371z M46.328,24.743H34.94c-0.449,0-0.813-0.365-0.813-0.813s0.365-0.814,0.813-0.814h11.389
	c0.449,0,0.813,0.365,0.813,0.814S46.777,24.743,46.328,24.743L46.328,24.743z M46.328,34.513H34.94
	c-0.449,0-0.813-0.364-0.813-0.815c0-0.449,0.365-0.813,0.813-0.813h11.389c0.449,0,0.813,0.365,0.813,0.813
	C47.142,34.148,46.777,34.513,46.328,34.513L46.328,34.513z M46.328,28H34.94c-0.449,0-0.813-0.365-0.813-0.813
	c0-0.451,0.365-0.815,0.813-0.815h11.389c0.449,0,0.813,0.365,0.813,0.815C47.142,27.636,46.777,28,46.328,28L46.328,28z
	 M46.328,31.256H34.94c-0.449,0-0.813-0.365-0.813-0.813s0.365-0.814,0.813-0.814h11.389c0.449,0,0.813,0.365,0.813,0.814
	S46.777,31.256,46.328,31.256L46.328,31.256z"/>
</svg>
