<?xml version="1.0" encoding="utf-8"?>
<!-- Generator: Adobe Illustrator 17.0.0, SVG Export Plug-In . SVG Version: 6.00 Build 0)  -->
<!DOCTYPE svg PUBLIC "-//W3C//DTD SVG 1.1//EN" "http://www.w3.org/Graphics/SVG/1.1/DTD/svg11.dtd">
<svg version="1.1" id="Layer_1" xmlns="http://www.w3.org/2000/svg" xmlns:xlink="http://www.w3.org/1999/xlink" x="0px" y="0px"
	 width="65px" height="56px" viewBox="0 0 65 56" enable-background="new 0 0 65 56" xml:space="preserve">
<path fill="#27AAE1" d="M46.752,16.582c-0.124,0.247-0.374,0.391-0.634,0.391c-0.106,0-0.214-0.023-0.316-0.075
	c-1.119-0.56-3.428-0.682-4.224-0.682c-0.391,0-0.707-0.318-0.707-0.709s0.316-0.709,0.707-0.709c0.131,0,3.213,0.011,4.856,0.832
	C46.785,15.806,46.928,16.232,46.752,16.582L46.752,16.582z M55.954,38.174H55.15v6.863c0,0.391-0.318,0.707-0.709,0.707
	s-0.707-0.316-0.707-0.707v-3.834H27.912v3.834c0,0.391-0.318,0.707-0.709,0.707c-0.391,0-0.707-0.316-0.707-0.707v-2.32h-7.664
	v2.32c0,0.391-0.318,0.707-0.709,0.707c-0.391,0-0.707-0.316-0.707-0.707v-3.834h-6.15v3.834c0,0.391-0.318,0.707-0.709,0.707
	S9.85,45.428,9.85,45.037v-6.863H9.046c-0.391,0-0.709-0.318-0.709-0.709s0.318-0.709,0.709-0.709h5.788
	c-0.282-0.455-0.444-0.99-0.444-1.563v-6.616c0-1.323,0.889-2.501,2.16-2.864l2.552-0.731c0.028-0.008,0.055-0.019,0.081-0.03
	c-1.211-0.235-2.2-0.544-2.833-0.771c-0.368-0.131-0.662-0.4-0.829-0.754c-0.166-0.352-0.185-0.746-0.053-1.109
	c0.624-1.727,1.095-4.617,1.194-6.039c0.241-3.434,2.822-6.024,6.003-6.024c3.182,0,5.762,2.591,6.003,6.024
	c0.1,1.422,0.571,4.311,1.194,6.039c0.131,0.363,0.113,0.757-0.053,1.109c-0.166,0.355-0.461,0.623-0.829,0.754
	c-0.634,0.227-1.621,0.537-2.832,0.771c0.025,0.011,0.052,0.022,0.08,0.03l2.553,0.731c1.27,0.363,2.159,1.541,2.159,2.864v6.616
	c0,0.573-0.163,1.109-0.444,1.563h3.57c0-0.016-0.002-0.031-0.002-0.048v-6.057c0-0.807,0.657-1.466,1.464-1.466h0.049v-0.607
	c0-1.323,0.889-2.501,2.16-2.864l2.552-0.731c0.344-0.097,0.585-0.416,0.585-0.774V23.57c-1.367-0.99-2.27-2.634-2.27-4.468v-1.156
	l-0.363-0.724c-0.258-0.516-0.394-1.095-0.394-1.672v-0.042c0-2.478,2.015-4.495,4.491-4.495h6.81c0.39,0,0.707,0.318,0.707,0.709
	v3.65c0,0.695-0.164,1.389-0.474,2.01l-0.283,0.565v1.347c0,1.433-0.565,2.771-1.593,3.769c-0.213,0.207-0.438,0.391-0.676,0.555
	l-0.002,0.591c0,0.358,0.241,0.677,0.585,0.774l2.552,0.731c1.272,0.363,2.16,1.541,2.16,2.864v6.616
	c0,0.573-0.163,1.109-0.444,1.563h4.275c0.391,0,0.709,0.318,0.709,0.709C56.663,37.856,56.345,38.174,55.954,38.174L55.954,38.174z
	 M18.833,41.3h7.664v-9.892c0-0.444-0.361-0.806-0.806-0.806h-6.053c-0.444,0-0.806,0.361-0.806,0.806L18.833,41.3L18.833,41.3z
	 M11.267,38.174v1.611h6.15v-1.611H11.267L11.267,38.174z M28.501,22.848c0.016-0.005,0.022-0.016,0.027-0.023
	c0.006-0.013,0.003-0.02,0.002-0.023c-0.666-1.848-1.169-4.917-1.275-6.42c-0.091-1.292-0.599-2.481-1.433-3.351
	c-0.851-0.887-1.943-1.356-3.157-1.356c-1.212,0-2.304,0.469-3.155,1.356c-0.834,0.87-1.344,2.059-1.435,3.351
	c-0.105,1.503-0.607,4.573-1.275,6.42c-0.002,0.003-0.003,0.011,0.003,0.023c0.003,0.008,0.011,0.019,0.025,0.023
	c1.084,0.388,3.282,1.037,5.837,1.037C25.219,23.885,27.418,23.236,28.501,22.848L28.501,22.848z M29.522,28.578
	c0-0.693-0.466-1.311-1.133-1.502l-2.553-0.731c-0.604-0.172-1.097-0.594-1.372-1.139c-0.574,0.059-1.176,0.095-1.801,0.095
	c-0.621,0-1.223-0.036-1.797-0.095c-0.272,0.548-0.765,0.965-1.375,1.139l-2.552,0.731c-0.668,0.191-1.134,0.809-1.134,1.502v6.616
	c0,0.862,0.701,1.563,1.563,1.563h0.048v-5.349c0-1.225,0.997-2.223,2.221-2.223h6.053c1.225,0,2.221,0.998,2.221,2.223v5.349h0.049
	c0.86,0,1.561-0.701,1.561-1.563L29.522,28.578L29.522,28.578z M35.526,30.602c-0.027,0-0.048,0.022-0.048,0.048v6.057
	c0,0.027,0.022,0.048,0.048,0.048h9.08c0.027,0,0.048-0.022,0.048-0.048V30.65c0-0.027-0.022-0.048-0.048-0.048L35.526,30.602
	L35.526,30.602z M47.682,19.293v-1.514c0-0.109,0.025-0.217,0.074-0.316l0.358-0.715c0.211-0.426,0.324-0.901,0.324-1.377V12.43
	h-6.101c-1.696,0-3.076,1.38-3.076,3.077v0.042c0,0.358,0.084,0.716,0.246,1.037l0.436,0.876c0.048,0.099,0.075,0.207,0.075,0.316
	v1.323c0,2.157,1.666,3.963,3.714,4.024c1.045,0.031,2.035-0.352,2.786-1.081C47.267,21.316,47.682,20.34,47.682,19.293
	L47.682,19.293z M42.164,24.935l0.58,0.58c0.296,0.296,0.687,0.458,1.104,0.458c0.418,0,0.81-0.163,1.104-0.458l0.58-0.58
	c-0.069-0.2-0.11-0.41-0.119-0.627c-0.499,0.156-1.025,0.238-1.563,0.238c-0.055,0-0.11,0-0.164-0.002
	c-0.487-0.016-0.957-0.103-1.403-0.25C42.275,24.515,42.234,24.731,42.164,24.935L42.164,24.935z M50.707,28.578
	c0-0.693-0.466-1.311-1.133-1.502l-2.553-0.731c-0.221-0.063-0.427-0.161-0.612-0.283l-0.455,0.454
	c-0.562,0.563-1.309,0.873-2.106,0.873c-0.795,0-1.543-0.31-2.106-0.873l-0.455-0.455c-0.185,0.124-0.39,0.222-0.612,0.285
	l-2.553,0.731c-0.666,0.191-1.133,0.809-1.133,1.502v0.607h7.615c0.807,0,1.464,0.659,1.464,1.466v3.077h1.61v-3.834
	c0-0.391,0.318-0.709,0.709-0.709s0.707,0.318,0.707,0.709v4.543c0,0.391-0.316,0.709-0.707,0.709H46.07v1.563
	c0,0.017-0.002,0.033-0.003,0.048h3.079c0.86,0,1.561-0.701,1.561-1.563V28.578L50.707,28.578z M53.734,38.174H27.961h-0.049v1.611
	h25.822V38.174L53.734,38.174z M40.051,34.377c-0.391,0-0.707-0.318-0.707-0.709s0.316-0.709,0.707-0.709s0.709,0.318,0.709,0.709
	C40.759,34.06,40.442,34.377,40.051,34.377L40.051,34.377z"/>
</svg>
