<?xml version="1.0" encoding="utf-8"?>
<!-- Generator: Adobe Illustrator 17.0.0, SVG Export Plug-In . SVG Version: 6.00 Build 0)  -->
<!DOCTYPE svg PUBLIC "-//W3C//DTD SVG 1.1//EN" "http://www.w3.org/Graphics/SVG/1.1/DTD/svg11.dtd">
<svg version="1.1" id="Layer_1" xmlns="http://www.w3.org/2000/svg" xmlns:xlink="http://www.w3.org/1999/xlink" x="0px" y="0px"
	 width="611.997px" height="106.762px" viewBox="0 342.619 611.997 106.762" enable-background="new 0 342.619 611.997 106.762"
	 xml:space="preserve">
<g>
	<path fill="#FFFFFF" d="M30.611,359.267c0,4.334-1.237,7.454-3.709,9.357c-2.475,1.906-5.373,2.861-8.699,2.861
		c-1.621,0-3.176-0.239-4.669-0.716s-2.812-1.214-3.964-2.212c-1.151-0.992-2.068-2.253-2.75-3.769
		c-0.682-1.516-1.022-3.359-1.022-5.524c0-2.078,0.341-3.9,1.022-5.457c0.682-1.56,1.598-2.814,2.75-3.769
		c1.151-0.952,2.472-1.668,3.964-2.145c1.492-0.474,3.051-0.716,4.669-0.716c3.325,0,6.224,0.955,8.699,2.861
		C29.373,351.948,30.611,355.024,30.611,359.267z M7.33,442.705v-62.381h21.745v62.384H7.33V442.705z"/>
	<path fill="#FFFFFF" d="M67.827,351.729v69.532h40.929v21.444h-64.59v-90.976H67.827z"/>
	<path fill="#FFFFFF" d="M140.349,359.267c0,4.334-1.237,7.454-3.709,9.357c-2.475,1.906-5.373,2.861-8.699,2.861
		c-1.621,0-3.176-0.239-4.669-0.716c-1.492-0.477-2.812-1.214-3.964-2.212c-1.151-0.992-2.068-2.253-2.75-3.769
		c-0.682-1.516-1.022-3.359-1.022-5.524c0-2.078,0.341-3.9,1.022-5.457c0.682-1.56,1.598-2.814,2.75-3.769
		c1.151-0.952,2.472-1.668,3.964-2.145c1.492-0.474,3.051-0.716,4.669-0.716c3.325,0,6.224,0.955,8.699,2.861
		C139.111,351.948,140.349,355.024,140.349,359.267z M117.072,442.705v-62.381h21.745v62.384h-21.745V442.705z"/>
	<path fill="#FFFFFF" d="M179.805,380.842c3.196-1.644,6.842-2.471,10.935-2.471c4.179,0,7.822,0.672,10.939,2.014
		c3.11,1.345,5.668,3.184,7.673,5.524c2.002,2.34,3.494,5.07,4.477,8.187c0.979,3.12,1.469,6.412,1.469,9.875v38.732h-21.742
		v-35.739c0-3.292-0.877-5.739-2.624-7.343c-1.75-1.604-3.987-2.404-6.713-2.404c-2.475,0-4.606,0.605-6.396,1.819
		c-1.79,1.217-3.157,2.427-4.093,3.641v40.029h-21.745v-62.381h19.187v7.148C173.731,384.698,176.606,382.489,179.805,380.842z"/>
	<path fill="#FFFFFF" d="M269.142,442.705l-15.091-23.653h-4.606v23.653h-21.742v-90.976h21.742v50.428h4.861l13.43-21.834h24.299
		l-19.952,30.673l21.232,31.712h-24.174V442.705z"/>
	<path fill="#FFFFFF" d="M293.319,411.514c0-6.065,1.042-11.219,3.133-15.466c2.088-4.246,4.731-7.666,7.931-10.268
		c3.196-2.599,6.69-4.482,10.485-5.655c3.795-1.17,7.355-1.755,10.681-1.755c6.565,0,12.024,1.194,16.372,3.574
		c4.351,2.384,7.716,5.457,10.105,9.226c2.386,3.769,3.838,8.015,4.351,12.736c0.51,4.724,0.212,9.468-0.897,14.232h-40.165
		c0.596,1.732,1.535,3.207,2.812,4.418c1.28,1.217,2.793,2.209,4.54,2.989c1.747,0.78,3.666,1.345,5.757,1.691
		c2.088,0.35,4.242,0.521,6.459,0.521c3.497,0,6.67-0.262,9.529-0.78c2.855-0.521,5.565-1.257,8.123-2.212v16.377
		c-2.902,1.039-6.204,1.886-9.913,2.535s-7.994,0.975-12.854,0.975c-5.029,0-9.764-0.716-14.198-2.145s-8.292-3.55-11.574-6.368
		c-3.282-2.814-5.883-6.28-7.802-10.396C294.275,421.631,293.319,416.887,293.319,411.514z M335.654,404.884
		c0.169-0.78,0.169-1.755,0-2.925c-0.172-1.17-0.596-2.316-1.277-3.446c-0.685-1.123-1.707-2.098-3.07-2.925
		c-1.363-0.824-3.113-1.237-5.244-1.237c-2.984,0-5.565,0.931-7.739,2.794c-2.174,1.863-3.262,4.441-3.262,7.733h20.594V404.884z"/>
	<path fill="#FFFFFF" d="M609.87,392.172c-1.429-3.651-3.425-6.791-5.926-9.34c-2.511-2.552-5.509-4.519-8.917-5.843
		c-6.667-2.582-14.82-2.528-21.143-0.222c-3.014,1.099-5.8,2.518-8.285,4.213c-1.284,0.881-2.492,1.809-3.603,2.777v-7.42h-10.661
		v70.356h10.916V399.7c0.827-1.422,1.846-2.898,3.034-4.401c1.373-1.725,3.001-3.302,4.841-4.69
		c1.826-1.372,3.957-2.528,6.336-3.436c4.255-1.624,9.86-1.826,14.357-0.077c2.068,0.807,3.828,1.947,5.373,3.483
		c1.499,1.486,2.693,3.406,3.55,5.716c0.893,2.387,1.343,5.188,1.343,8.328v42.067h10.912v-42.322
		C612.001,399.902,611.283,395.8,609.87,392.172z"/>
	<path fill="#FFFFFF" d="M385.805,379.473c0,0,16.951-8.489,45.578,8.035c22.744,13.129,24.104,46.855,56.328,48.983
		c32.224,2.128,39.559-20.499,39.559-20.499s0.787,31.678-43.752,30.881s-51.636-63.278-90.504-49.006"/>
	<g>
		<path fill="#FFFFFF" d="M411.371,402.769v15.893c-0.94,1.994-2.495,3.789-4.669,5.393c-2.174,1.604-4.755,2.404-7.739,2.404
			c-2.303,0-4.285-0.43-5.949-1.298c-1.664-0.864-3.027-2.014-4.093-3.446c-1.065-1.429-1.853-3.033-2.366-4.808
			c-0.51-1.775-0.768-3.574-0.768-5.393s0.255-3.618,0.768-5.393c0.513-1.775,1.3-3.379,2.366-4.808
			c1.065-1.432,2.429-2.579,4.093-3.446c0.218-0.114,0.486-0.158,0.715-0.256v-18.888c0-0.114,0.026-0.208,0.03-0.319
			c-0.235-0.003-0.443-0.03-0.682-0.03c-5.115,0-9.552,0.975-13.301,2.925c-3.752,1.95-6.842,4.482-9.271,7.602
			c-2.432,3.12-4.222,6.674-5.373,10.658c-1.151,3.987-1.724,7.972-1.724,11.956c0,4.075,0.576,8.079,1.724,12.023
			c1.151,3.944,2.945,7.474,5.373,10.594c2.429,3.12,5.519,5.655,9.271,7.602c3.752,1.95,8.186,2.925,13.301,2.925
			c5.542,0,10.019-1.086,13.43-3.248c3.411-2.165,5.883-4.549,7.418-7.148v8.446h19.184v-21.269
			C427.316,413.286,416.507,405.967,411.371,402.769z"/>
		<polygon fill="#FFFFFF" points="433.113,395.44 433.113,351.729 411.371,351.729 411.371,385.276 		"/>
	</g>
	<path fill="#FFFFFF" d="M539.456,379.073c-2.081-6.052-5.241-11.549-9.397-16.337c-4.169-4.804-9.437-8.755-15.647-11.751
		c-6.257-3.016-13.642-4.546-21.954-4.546s-15.7,1.526-21.954,4.546c-6.211,2.992-11.475,6.946-15.647,11.751
		c-4.156,4.784-7.316,10.281-9.397,16.337c-0.731,2.125-1.284,4.27-1.757,6.422c2.439,2.101,6.386,5.679,9.801,9.525
		c0.212-4.092,0.983-8.187,2.372-12.215c1.611-4.69,4.073-8.97,7.306-12.726c3.203-3.722,7.286-6.778,12.14-9.088
		c4.827-2.293,10.591-3.46,17.139-3.46c6.548,0,12.312,1.163,17.136,3.456c4.857,2.313,8.94,5.369,12.143,9.091
		c3.233,3.755,5.691,8.035,7.309,12.726c1.635,4.751,2.468,9.599,2.468,14.41c0,4.811-0.831,9.656-2.472,14.41
		c-1.611,4.687-4.07,8.973-7.302,12.729c-3.206,3.719-7.292,6.778-12.146,9.088c-4.814,2.293-10.581,3.456-17.136,3.456
		c-6.555,0-12.319-1.163-17.139-3.46c-4.851-2.31-8.937-5.366-12.14-9.084c-0.268-0.309-19.674-26.114-19.674-26.114
		c11.375,22.701,20.792,42.211,26.999,45.2c6.25,3.016,13.639,4.542,21.954,4.542s15.703-1.526,21.95-4.542
		c6.214-2.992,11.481-6.943,15.654-11.751c4.156-4.784,7.316-10.281,9.397-16.337c2.055-5.981,3.094-12.087,3.094-18.142
		C542.553,391.163,541.511,385.058,539.456,379.073z"/>
</g>
</svg>
