<?xml version="1.0" encoding="utf-8"?>
<!-- Generator: Adobe Illustrator 17.0.0, SVG Export Plug-In . SVG Version: 6.00 Build 0)  -->
<!DOCTYPE svg PUBLIC "-//W3C//DTD SVG 1.1//EN" "http://www.w3.org/Graphics/SVG/1.1/DTD/svg11.dtd">
<svg version="1.1" id="Layer_1" xmlns="http://www.w3.org/2000/svg" xmlns:xlink="http://www.w3.org/1999/xlink" x="0px" y="0px"
	 width="100%" height="100%" viewBox="0 0 235.537 41.089" enable-background="new 0 0 235.537 41.089"
	 xml:space="preserve">
<g>
	<polygon fill="#005691" points="29.384,13.96 24.311,13.926 24.412,24.621 11.344,24.695 11.344,29.745 29.384,29.643 	"/>
	<linearGradient id="SVGID_1_" gradientUnits="userSpaceOnUse" x1="17.0241" y1="0.227" x2="15.3331" y2="30.3832">
		<stop  offset="0" style="stop-color:#8DC63F"/>
		<stop  offset="1" style="stop-color:#399500"/>
	</linearGradient>
	<polygon fill="url(#SVGID_1_)" points="5.235,5.233 33.74,5.269 33.712,0.066 0.035,0.049 0.032,34.359 5.234,34.36 	"/>
	<linearGradient id="SVGID_2_" gradientUnits="userSpaceOnUse" x1="38.2166" y1="1.4154" x2="36.5256" y2="31.5715">
		<stop  offset="0" style="stop-color:#8DC63F"/>
		<stop  offset="1" style="stop-color:#399500"/>
	</linearGradient>
	<polygon fill="url(#SVGID_2_)" points="40.745,0 35.521,0.092 35.55,5.294 40.774,5.202 	"/>
	<polygon fill="#27AAE1" points="40.743,6.912 35.542,6.929 35.643,35.85 0,35.887 0.029,41.089 40.863,41.03 	"/>
	<g>
		<polygon fill="#DDDDDD" points="6.68,34.273 6.672,6.843 10.286,6.842 10.292,30.676 29.391,30.765 29.374,34.378 		"/>
	</g>
	<g>
		<polygon fill="#DDDDDD" points="30.605,34.195 30.538,10.427 11.32,10.246 11.357,6.632 34.142,6.85 34.218,34.185 		"/>
	</g>
	<polygon fill="#004870" points="29.384,14.082 24.311,14.048 24.341,17.193 29.384,18.202 	"/>
	<polygon fill="#0F8BB7" points="40.838,33.231 35.639,34.546 35.653,35.85 40.854,35.977 	"/>
	<polygon fill="#005691" points="29.384,16.143 29.384,11.093 11.344,11.178 11.344,26.693 16.321,26.71 16.438,16.205 	"/>
	<polygon fill="#004870" points="16.367,23.505 11.344,22.497 11.344,26.617 16.397,26.651 	"/>
	<path fill="#005691" d="M19.442,28.38c-1.146-0.742-1.783-1.808-1.792-3.004l-0.005-0.717l-6.3,0.036v5.05l10.119-0.057
		L19.442,28.38z"/>
	<g>
		<linearGradient id="SVGID_3_" gradientUnits="userSpaceOnUse" x1="57.1893" y1="2.4793" x2="55.4983" y2="32.6354">
			<stop  offset="0" style="stop-color:#8DC63F"/>
			<stop  offset="1" style="stop-color:#399500"/>
		</linearGradient>
		<path fill="url(#SVGID_3_)" d="M59.824,14.164c0,1.289-0.374,2.217-1.121,2.783c-0.748,0.567-1.624,0.851-2.629,0.851
			c-0.49,0-0.96-0.071-1.411-0.213c-0.451-0.142-0.85-0.361-1.198-0.658c-0.348-0.295-0.625-0.67-0.831-1.121
			c-0.206-0.451-0.309-0.999-0.309-1.643c0-0.618,0.103-1.16,0.309-1.623c0.206-0.464,0.483-0.837,0.831-1.121
			c0.348-0.283,0.747-0.496,1.198-0.638c0.451-0.141,0.922-0.213,1.411-0.213c1.005,0,1.881,0.284,2.629,0.851
			C59.45,11.987,59.824,12.902,59.824,14.164z M52.788,38.981V20.427h6.572v18.555H52.788z"/>
		<path fill="#00A79D" d="M71.072,11.922v20.681h12.37v6.378H63.921V11.922H71.072z"/>
		<path fill="#00A79D" d="M92.99,14.164c0,1.289-0.374,2.217-1.121,2.783c-0.748,0.567-1.624,0.851-2.629,0.851
			c-0.49,0-0.96-0.071-1.411-0.213c-0.451-0.142-0.85-0.361-1.198-0.658c-0.348-0.295-0.625-0.67-0.831-1.121
			c-0.206-0.451-0.309-0.999-0.309-1.643c0-0.618,0.103-1.16,0.309-1.623c0.206-0.464,0.483-0.837,0.831-1.121
			c0.348-0.283,0.747-0.496,1.198-0.638c0.451-0.141,0.922-0.213,1.411-0.213c1.005,0,1.881,0.284,2.629,0.851
			C92.616,11.987,92.99,12.902,92.99,14.164z M85.955,38.981V20.427h6.572v18.555H85.955z"/>
		<path fill="#00A79D" d="M104.915,20.581c0.966-0.489,2.068-0.735,3.305-0.735c1.263,0,2.364,0.2,3.306,0.599
			c0.94,0.4,1.713,0.947,2.319,1.643c0.605,0.696,1.056,1.508,1.353,2.435c0.296,0.928,0.444,1.907,0.444,2.937v11.52h-6.571v-10.63
			c0-0.979-0.265-1.707-0.793-2.184c-0.529-0.477-1.205-0.715-2.029-0.715c-0.748,0-1.392,0.18-1.933,0.541
			c-0.541,0.362-0.954,0.722-1.237,1.083v11.906h-6.572V20.427h5.799v2.126C103.079,21.728,103.948,21.071,104.915,20.581z"/>
		<path fill="#00A79D" d="M131.915,38.981l-4.561-7.035h-1.392v7.035h-6.571V11.922h6.571v14.999h1.469l4.059-6.494h7.344
			l-6.03,9.123l6.417,9.432H131.915z"/>
		<path fill="#00A79D" d="M139.222,29.704c0-1.804,0.315-3.337,0.947-4.6c0.631-1.263,1.43-2.28,2.397-3.054
			c0.966-0.773,2.022-1.333,3.169-1.682c1.147-0.348,2.223-0.522,3.228-0.522c1.984,0,3.634,0.355,4.948,1.063
			c1.315,0.709,2.332,1.623,3.054,2.744c0.721,1.121,1.16,2.384,1.315,3.788c0.154,1.405,0.064,2.816-0.271,4.233H145.87
			c0.18,0.515,0.464,0.954,0.85,1.314c0.387,0.362,0.844,0.657,1.372,0.889c0.528,0.232,1.108,0.4,1.74,0.503
			c0.631,0.104,1.282,0.155,1.952,0.155c1.057,0,2.016-0.078,2.88-0.232c0.863-0.155,1.682-0.374,2.455-0.658v4.871
			c-0.877,0.309-1.875,0.561-2.996,0.754s-2.416,0.29-3.885,0.29c-1.52,0-2.951-0.213-4.291-0.638
			c-1.34-0.425-2.506-1.056-3.498-1.894c-0.992-0.837-1.778-1.868-2.358-3.092C139.511,32.713,139.222,31.302,139.222,29.704z
			 M152.017,27.732c0.051-0.232,0.051-0.522,0-0.87c-0.052-0.348-0.18-0.689-0.386-1.025c-0.207-0.334-0.516-0.624-0.928-0.87
			c-0.412-0.245-0.941-0.368-1.585-0.368c-0.902,0-1.682,0.277-2.339,0.831c-0.657,0.554-0.986,1.321-0.986,2.3H152.017z"/>
		<path fill="#005691" d="M234.893,23.951c-0.432-1.086-1.035-2.02-1.791-2.778c-0.759-0.759-1.665-1.344-2.695-1.738
			c-2.015-0.768-4.479-0.752-6.39-0.066c-0.911,0.327-1.753,0.749-2.504,1.253c-0.388,0.262-0.753,0.538-1.089,0.826v-2.207h-3.222
			v20.926h3.299V26.19c0.25-0.423,0.558-0.862,0.917-1.309c0.415-0.513,0.907-0.982,1.463-1.395
			c0.552-0.408,1.196-0.752,1.915-1.022c1.286-0.483,2.98-0.543,4.339-0.023c0.625,0.24,1.157,0.579,1.624,1.036
			c0.453,0.442,0.814,1.013,1.073,1.7c0.27,0.71,0.406,1.543,0.406,2.477v12.512h3.298V27.578
			C235.537,26.25,235.32,25.03,234.893,23.951z"/>
		<linearGradient id="SVGID_4_" gradientUnits="userSpaceOnUse" x1="188.5519" y1="-0.051" x2="188.5519" y2="67.0319">
			<stop  offset="0" style="stop-color:#8DC63F"/>
			<stop  offset="1" style="stop-color:#399500"/>
		</linearGradient>
		<path fill="url(#SVGID_4_)" d="M167.174,20.174c0,0,5.123-2.525,13.775,2.39c6.874,3.905,7.285,13.936,17.024,14.569
			c9.739,0.633,11.956-6.097,11.956-6.097s0.238,9.422-13.223,9.185C183.245,39.984,181.1,21.4,169.353,25.645"/>
		<g>
			<linearGradient id="SVGID_5_" gradientUnits="userSpaceOnUse" x1="170.9384" y1="-0.051" x2="170.9384" y2="67.0319">
				<stop  offset="0" style="stop-color:#8DC63F"/>
				<stop  offset="1" style="stop-color:#399500"/>
			</linearGradient>
			<path fill="url(#SVGID_5_)" d="M174.901,27.103v4.727c-0.284,0.593-0.754,1.127-1.411,1.604
				c-0.657,0.477-1.437,0.715-2.339,0.715c-0.696,0-1.295-0.128-1.798-0.386c-0.503-0.257-0.915-0.599-1.237-1.025
				c-0.322-0.425-0.56-0.902-0.715-1.43c-0.154-0.528-0.232-1.063-0.232-1.604c0-0.541,0.077-1.076,0.232-1.604
				c0.155-0.528,0.393-1.005,0.715-1.43c0.322-0.426,0.734-0.767,1.237-1.025c0.066-0.034,0.147-0.047,0.216-0.076v-5.618
				c0-0.034,0.008-0.062,0.009-0.095c-0.071-0.001-0.134-0.009-0.206-0.009c-1.546,0-2.887,0.29-4.02,0.87
				c-1.134,0.58-2.068,1.333-2.802,2.261c-0.735,0.928-1.276,1.985-1.624,3.17c-0.348,1.186-0.521,2.371-0.521,3.556
				c0,1.212,0.174,2.403,0.521,3.576c0.348,1.173,0.89,2.223,1.624,3.151c0.734,0.928,1.668,1.682,2.802,2.261
				c1.134,0.58,2.474,0.87,4.02,0.87c1.675,0,3.028-0.323,4.059-0.966c1.031-0.644,1.778-1.353,2.242-2.126v2.512h5.798v-6.326
				C179.72,30.231,176.453,28.054,174.901,27.103z"/>
			<linearGradient id="SVGID_6_" gradientUnits="userSpaceOnUse" x1="178.1863" y1="-0.051" x2="178.1863" y2="67.0319">
				<stop  offset="0" style="stop-color:#8DC63F"/>
				<stop  offset="1" style="stop-color:#399500"/>
			</linearGradient>
			<polygon fill="url(#SVGID_6_)" points="181.472,24.923 181.472,11.922 174.901,11.922 174.901,21.9 			"/>
		</g>
		<path fill="#005691" d="M213.612,20.055c-0.629-1.8-1.584-3.435-2.84-4.859c-1.26-1.429-2.852-2.604-4.729-3.495
			c-1.891-0.897-4.123-1.352-6.635-1.352s-4.745,0.454-6.635,1.352c-1.877,0.89-3.468,2.066-4.729,3.495
			c-1.256,1.423-2.211,3.058-2.84,4.859c-0.221,0.632-0.388,1.27-0.531,1.91c0.737,0.625,1.93,1.689,2.962,2.833
			c0.064-1.217,0.297-2.435,0.717-3.633c0.487-1.395,1.231-2.668,2.208-3.785c0.968-1.107,2.202-2.016,3.669-2.703
			c1.459-0.682,3.201-1.029,5.18-1.029c1.979,0,3.721,0.346,5.179,1.028c1.468,0.688,2.702,1.597,3.67,2.704
			c0.977,1.117,1.72,2.39,2.209,3.785c0.494,1.413,0.746,2.855,0.746,4.286c0,1.431-0.251,2.872-0.747,4.286
			c-0.487,1.394-1.23,2.669-2.207,3.786c-0.969,1.106-2.204,2.016-3.671,2.703c-1.455,0.682-3.198,1.028-5.179,1.028
			c-1.981,0-3.723-0.346-5.18-1.029c-1.466-0.687-2.701-1.596-3.669-2.702c-0.081-0.092-5.946-7.767-5.946-7.767
			c3.438,6.752,6.284,12.555,8.16,13.444c1.889,0.897,4.122,1.351,6.635,1.351s4.746-0.454,6.634-1.351
			c1.878-0.89,3.47-2.065,4.731-3.495c1.256-1.423,2.211-3.058,2.84-4.859c0.621-1.779,0.935-3.595,0.935-5.396
			C214.548,23.651,214.233,21.835,213.612,20.055z"/>
	</g>
</g>
</svg>
