<?xml version="1.0" encoding="utf-8"?>
<!-- Generator: Adobe Illustrator 17.0.0, SVG Export Plug-In . SVG Version: 6.00 Build 0)  -->
<!DOCTYPE svg PUBLIC "-//W3C//DTD SVG 1.1//EN" "http://www.w3.org/Graphics/SVG/1.1/DTD/svg11.dtd">
<svg version="1.1" id="Layer_1" xmlns="http://www.w3.org/2000/svg" xmlns:xlink="http://www.w3.org/1999/xlink" x="0px" y="0px"
	 width="65px" height="56px" viewBox="0 0 65 56" enable-background="new 0 0 65 56" xml:space="preserve">
<path fill="#27AAE1" d="M49.157,19.499h-6.755v-7.581c0-0.513-0.416-0.928-0.929-0.928H23.527c-0.513,0-0.929,0.415-0.929,0.928
	v7.581h-6.755c-0.512,0-0.928,0.416-0.928,0.928v23.655c0,0.513,0.416,0.928,0.928,0.928h8.152h17.01h8.152
	c0.512,0,0.928-0.415,0.928-0.928V20.427C50.085,19.915,49.67,19.499,49.157,19.499L49.157,19.499z M42.327,36.075H22.673v-2.893
	h19.653L42.327,36.075L42.327,36.075L42.327,36.075z M24.923,37.931h6.649v5.224h-6.649V37.931L24.923,37.931z M33.428,43.154V37.93
	h6.649v5.224H33.428L33.428,43.154z M48.229,43.154h-6.295V37.93h1.322c0.512,0,0.928-0.416,0.928-0.928v-4.748
	c0-0.513-0.416-0.928-0.928-0.928h-21.51c-0.513,0-0.929,0.415-0.929,0.928v4.748c0,0.512,0.416,0.928,0.929,0.928h1.32v5.224
	h-6.294v-21.8h31.457L48.229,43.154L48.229,43.154z M40.545,12.846v6.653h-16.09v-6.653L40.545,12.846L40.545,12.846z"/>
</svg>
