<?xml version="1.0" encoding="utf-8"?>
<!-- Generator: Adobe Illustrator 17.0.0, SVG Export Plug-In . SVG Version: 6.00 Build 0)  -->
<!DOCTYPE svg PUBLIC "-//W3C//DTD SVG 1.1//EN" "http://www.w3.org/Graphics/SVG/1.1/DTD/svg11.dtd">
<svg version="1.1" id="Layer_1" xmlns="http://www.w3.org/2000/svg" xmlns:xlink="http://www.w3.org/1999/xlink" x="0px" y="0px"
	 width="65px" height="56px" viewBox="0 0 65 56" enable-background="new 0 0 65 56" xml:space="preserve">
<linearGradient id="SVGID_1_" gradientUnits="userSpaceOnUse" x1="14.9154" y1="28" x2="50.0846" y2="28">
	<stop  offset="0" style="stop-color:#22A9E0"/>
	<stop  offset="1" style="stop-color:#00A79C"/>
</linearGradient>
<path fill="url(#SVGID_1_)" d="M49.157,19.499h-6.755v-7.581c0-0.513-0.416-0.928-0.929-0.928H23.527
	c-0.513,0-0.929,0.415-0.929,0.928v7.581h-6.755c-0.512,0-0.928,0.416-0.928,0.928v23.655c0,0.513,0.416,0.928,0.928,0.928h8.152
	h17.01h8.152c0.512,0,0.928-0.415,0.928-0.928V20.427C50.085,19.915,49.67,19.499,49.157,19.499L49.157,19.499z M42.327,36.075
	H22.673v-2.893h19.653V36.075L42.327,36.075L42.327,36.075z M24.923,37.931h6.649v5.224h-6.649V37.931L24.923,37.931z
	 M33.428,43.154v-5.224h6.649v5.224H33.428L33.428,43.154z M48.229,43.154h-6.295v-5.224h1.322c0.512,0,0.928-0.416,0.928-0.928
	v-4.748c0-0.513-0.416-0.928-0.928-0.928h-21.51c-0.513,0-0.929,0.415-0.929,0.928v4.748c0,0.512,0.416,0.928,0.929,0.928h1.32
	v5.224h-6.294v-21.8h31.457V43.154L48.229,43.154z M40.545,12.846v6.653h-16.09v-6.653H40.545L40.545,12.846z"/>
</svg>
