<?xml version="1.0" encoding="utf-8"?>
<!-- Generator: Adobe Illustrator 17.0.0, SVG Export Plug-In . SVG Version: 6.00 Build 0)  -->
<!DOCTYPE svg PUBLIC "-//W3C//DTD SVG 1.1//EN" "http://www.w3.org/Graphics/SVG/1.1/DTD/svg11.dtd">
<svg version="1.1" id="Layer_1" xmlns="http://www.w3.org/2000/svg" xmlns:xlink="http://www.w3.org/1999/xlink" x="0px" y="0px"
	 width="65px" height="56px" viewBox="0 0 65 56" enable-background="new 0 0 65 56" xml:space="preserve">
<linearGradient id="SVGID_1_" gradientUnits="userSpaceOnUse" x1="14.9999" y1="28" x2="50.0001" y2="28">
	<stop  offset="0" style="stop-color:#22A9E0"/>
	<stop  offset="1" style="stop-color:#00A79C"/>
</linearGradient>
<path fill="url(#SVGID_1_)" d="M50,42.542c0,1.632-1.327,2.958-2.96,2.958c-0.79,0-1.533-0.307-2.092-0.865l-5.392-5.392
	l-1.012,1.012l-0.798-0.798l1.012-1.012l-1.065-1.065c-1.539,0.856-3.309,1.347-5.192,1.347c-5.366,0-9.81-3.964-10.591-9.116
	c-2.067,0.555-3.521,2.42-3.521,4.599h-1.129c0-2.76,1.887-5.109,4.54-5.732c-0.008-0.16-0.023-0.316-0.023-0.477
	c0-5.366,3.964-9.81,9.116-10.591c-0.555-2.067-2.42-3.521-4.601-3.521v-1.13c2.761,0,5.111,1.888,5.734,4.54
	c0.16-0.006,0.316-0.023,0.477-0.023c5.366,0,9.81,3.964,10.591,9.116c2.067-0.555,3.521-2.42,3.521-4.599h1.13
	c0,2.761-1.888,5.109-4.54,5.732c0.006,0.16,0.023,0.316,0.023,0.477c0,1.884-0.491,3.653-1.347,5.192l1.065,1.065l1.012-1.012
	l0.798,0.798l-1.012,1.014l5.391,5.391C49.693,41.009,50,41.752,50,42.542L50,42.542z M31.101,18.517
	c-4.629,0.682-8.197,4.668-8.197,9.483c0,0.092,0.013,0.181,0.014,0.272l1.12-0.186c0-0.028-0.005-0.058-0.005-0.086
	c0-4.255,3.159-7.778,7.253-8.37L31.101,18.517L31.101,18.517z M25.162,28.001c0,4.047,3.292,7.339,7.339,7.339
	c4.046,0,7.339-3.292,7.339-7.339s-3.293-7.339-7.339-7.339C28.454,20.662,25.162,23.954,25.162,28.001L25.162,28.001z
	 M32.501,18.403c-0.092,0-0.181,0.013-0.272,0.016l0.186,1.119c0.028,0,0.056-0.005,0.086-0.005c4.255,0,7.778,3.159,8.37,7.253
	l1.112-0.185C41.302,21.972,37.316,18.403,32.501,18.403L32.501,18.403z M42.097,28.001c0-0.092-0.011-0.181-0.014-0.272
	l-1.119,0.186c0,0.03,0.005,0.058,0.005,0.086c0,4.67-3.8,8.468-8.468,8.468c-4.257,0-7.778-3.159-8.371-7.254l-1.112,0.186
	c0.682,4.629,4.668,8.196,9.483,8.196C37.792,37.597,42.097,33.293,42.097,28.001L42.097,28.001z M41.26,34.171
	c-0.709,1.004-1.585,1.88-2.589,2.589l0.887,0.887l2.587-2.589L41.26,34.171L41.26,34.171z M48.336,41.247l-5.391-5.391
	l-2.589,2.589l5.391,5.391c0.346,0.346,0.806,0.537,1.295,0.537c1.009,0,1.83-0.821,1.83-1.83
	C48.872,42.052,48.681,41.592,48.336,41.247L48.336,41.247z M44.921,20.662c-2.802,0-5.081-2.279-5.081-5.081
	c0-2.802,2.279-5.081,5.081-5.081c2.802,0,5.08,2.279,5.08,5.081C50,18.383,47.722,20.662,44.921,20.662L44.921,20.662z
	 M43.226,19.146c0.515,0.246,1.087,0.386,1.694,0.386c0.605,0,1.178-0.141,1.693-0.386v-0.743c0-0.932-0.76-1.693-1.693-1.693
	c-0.934,0-1.694,0.76-1.694,1.693V19.146L43.226,19.146z M46.048,14.453c0-0.624-0.505-1.129-1.128-1.129
	c-0.623,0-1.13,0.505-1.13,1.129c0,0.623,0.507,1.128,1.13,1.128C45.543,15.581,46.048,15.076,46.048,14.453L46.048,14.453z
	 M44.921,11.629c-2.179,0-3.952,1.774-3.952,3.952c0,1.076,0.433,2.052,1.134,2.767c0.019-0.95,0.504-1.787,1.239-2.284
	c-0.418-0.41-0.68-0.981-0.68-1.611c0-1.247,1.014-2.259,2.259-2.259c1.245,0,2.257,1.012,2.257,2.259
	c0,0.63-0.261,1.201-0.681,1.611c0.735,0.497,1.22,1.334,1.239,2.284c0.701-0.715,1.136-1.691,1.136-2.767
	C48.872,13.403,47.098,11.629,44.921,11.629L44.921,11.629z M20.081,20.662c-2.802,0-5.081-2.279-5.081-5.081
	c0-2.802,2.279-5.081,5.081-5.081c2.802,0,5.081,2.279,5.081,5.081C25.162,18.383,22.883,20.662,20.081,20.662L20.081,20.662z
	 M18.388,19.146c0.513,0.246,1.086,0.386,1.693,0.386s1.18-0.141,1.694-0.386v-0.743c0-0.932-0.76-1.693-1.694-1.693
	s-1.693,0.76-1.693,1.693V19.146L18.388,19.146z M21.211,14.453c0-0.624-0.507-1.129-1.129-1.129c-0.623,0-1.129,0.505-1.129,1.129
	c0,0.623,0.507,1.128,1.129,1.128C20.704,15.581,21.211,15.076,21.211,14.453L21.211,14.453z M20.081,11.629
	c-2.178,0-3.952,1.774-3.952,3.952c0,1.076,0.435,2.052,1.134,2.767c0.02-0.95,0.505-1.787,1.241-2.284
	c-0.419-0.41-0.681-0.981-0.681-1.611c0-1.247,1.012-2.259,2.257-2.259c1.245,0,2.259,1.012,2.259,2.259
	c0,0.63-0.263,1.201-0.682,1.611c0.735,0.497,1.22,1.334,1.241,2.284c0.701-0.715,1.134-1.691,1.134-2.767
	C24.033,13.403,22.26,11.629,20.081,11.629L20.081,11.629z M20.081,45.5C17.279,45.5,15,43.222,15,40.42
	c0-2.802,2.279-5.081,5.081-5.081c2.802,0,5.081,2.279,5.081,5.081C25.162,43.222,22.883,45.5,20.081,45.5L20.081,45.5z
	 M18.388,43.986c0.513,0.244,1.086,0.386,1.693,0.386s1.18-0.142,1.694-0.386v-0.743c0-0.934-0.76-1.693-1.694-1.693
	s-1.693,0.759-1.693,1.693V43.986L18.388,43.986z M21.211,39.291c0-0.623-0.507-1.13-1.129-1.13c-0.623,0-1.129,0.507-1.129,1.13
	c0,0.623,0.507,1.129,1.129,1.129C20.704,40.42,21.211,39.914,21.211,39.291L21.211,39.291z M20.081,36.469
	c-2.178,0-3.952,1.772-3.952,3.952c0,1.076,0.435,2.052,1.134,2.766c0.02-0.95,0.505-1.785,1.241-2.284
	c-0.419-0.41-0.681-0.979-0.681-1.611c0-1.245,1.012-2.257,2.257-2.257c1.245,0,2.259,1.012,2.259,2.257
	c0,0.632-0.263,1.201-0.682,1.611c0.735,0.497,1.22,1.334,1.241,2.284c0.701-0.713,1.134-1.69,1.134-2.766
	C24.033,38.241,22.26,36.469,20.081,36.469L20.081,36.469z M26.29,30.823V30.26v-0.566v-2.822h3.388v2.822h1.128v-7.337h3.387v7.337
	h1.129v-5.08h3.387v5.08v0.566v0.563H26.29L26.29,30.823z M28.549,28.001H27.42v1.693h1.129V28.001L28.549,28.001z M33.066,23.484
	h-1.129v6.209h1.129V23.484L33.066,23.484z M37.58,25.743h-1.128v3.95h1.128V25.743L37.58,25.743z"/>
</svg>
