<?xml version="1.0" encoding="utf-8"?>
<!-- Generator: Adobe Illustrator 17.0.0, SVG Export Plug-In . SVG Version: 6.00 Build 0)  -->
<!DOCTYPE svg PUBLIC "-//W3C//DTD SVG 1.1//EN" "http://www.w3.org/Graphics/SVG/1.1/DTD/svg11.dtd">
<svg version="1.1" id="Layer_1" xmlns="http://www.w3.org/2000/svg" xmlns:xlink="http://www.w3.org/1999/xlink" x="0px" y="0px"
	 width="65px" height="56px" viewBox="0 0 65 56" enable-background="new 0 0 65 56" xml:space="preserve">
<linearGradient id="SVGID_1_" gradientUnits="userSpaceOnUse" x1="6.1501" y1="28" x2="58.8499" y2="28">
	<stop  offset="0" style="stop-color:#22A9E0"/>
	<stop  offset="1" style="stop-color:#00A79C"/>
</linearGradient>
<path fill="url(#SVGID_1_)" d="M47.431,40.041c-2.422,0-4.391-1.968-4.391-4.385s1.97-4.385,4.391-4.385
	c2.422,0,4.391,1.968,4.391,4.385C51.823,38.074,49.853,40.041,47.431,40.041L47.431,40.041z M47.431,33.025
	c-1.452,0-2.634,1.181-2.634,2.631s1.183,2.631,2.634,2.631c1.453,0,2.636-1.181,2.636-2.631S48.885,33.025,47.431,33.025
	L47.431,33.025z M17.569,40.041c-2.422,0-4.391-1.968-4.391-4.385s1.97-4.385,4.391-4.385c2.422,0,4.391,1.968,4.391,4.385
	C21.96,38.074,19.99,40.041,17.569,40.041L17.569,40.041z M17.569,33.025c-1.453,0-2.634,1.181-2.634,2.631s1.181,2.631,2.634,2.631
	s2.634-1.181,2.634-2.631S19.022,33.025,17.569,33.025L17.569,33.025z M57.971,36.534h-3.514c-0.483,0-0.878-0.394-0.878-0.878
	c0-3.385-2.758-6.139-6.148-6.139c-3.39,0-6.148,2.753-6.148,6.139c0,0.483-0.394,0.878-0.879,0.878h-15.81
	c-0.485,0-0.878-0.394-0.878-0.878c0-3.385-2.758-6.139-6.148-6.139s-6.148,2.753-6.148,6.139c0,0.483-0.394,0.878-0.879,0.878
	H7.029c-0.485,0-0.879-0.394-0.879-0.878v-3.507c0-0.485,0.394-0.878,0.879-0.878v-2.63c0-3.337,6.04-5.175,11.874-5.259
	c5.047-6.098,12.908-8.456,23.378-7.01c0.011,0.002,0.02,0.003,0.031,0.005c5.669,0.992,8.235,3.995,10.101,7.151l4.956,1.65
	c0.36,0.119,0.601,0.454,0.601,0.832v5.261c0.485,0,0.879,0.393,0.879,0.878v3.507C58.85,36.139,58.456,36.534,57.971,36.534
	L57.971,36.534z M34.256,17.787c-5.43,0.385-9.723,2.239-12.98,5.593h12.98V17.787L34.256,17.787z M42.025,18.107
	c-2.135-0.294-4.133-0.419-6.012-0.394v5.668h8.792l0.044-4.495C44.012,18.557,43.082,18.293,42.025,18.107L42.025,18.107z
	 M46.596,19.744l-0.034,3.634h3.683C49.259,21.911,48.121,20.678,46.596,19.744L46.596,19.744z M57.093,33.025
	c-0.485,0-0.878-0.393-0.878-0.876v-2.631h-0.879c-0.485,0-0.878-0.393-0.878-0.876c0-0.485,0.393-0.878,0.878-0.878h0.879v-1.122
	l-4.535-1.51H19.325c-5.292,0-8.928,1.344-10.117,2.631h0.455c0.485,0,0.878,0.393,0.878,0.878c0,0.483-0.393,0.876-0.878,0.876
	H8.786v2.631c0,0.483-0.394,0.876-0.879,0.876v1.754h1.805c0.438-3.941,3.794-7.015,7.856-7.015s7.418,3.074,7.856,7.015h14.15
	c0.438-3.941,3.794-7.015,7.856-7.015c4.063,0,7.418,3.074,7.856,7.015h1.805V33.025L57.093,33.025z"/>
</svg>
