<?xml version="1.0" encoding="utf-8"?>
<!-- Generator: Adobe Illustrator 17.0.0, SVG Export Plug-In . SVG Version: 6.00 Build 0)  -->
<!DOCTYPE svg PUBLIC "-//W3C//DTD SVG 1.1//EN" "http://www.w3.org/Graphics/SVG/1.1/DTD/svg11.dtd">
<svg version="1.1" id="Layer_1" xmlns="http://www.w3.org/2000/svg" xmlns:xlink="http://www.w3.org/1999/xlink" x="0px" y="0px"
	 width="65px" height="56px" viewBox="0 0 65 56" enable-background="new 0 0 65 56" xml:space="preserve">
<path fill="#27AAE1" d="M46.431,33.932l0.008,0.006c1.536,1.464,2.257,2.844,2.207,4.218c-0.075,2.002-1.74,3.37-3.209,4.576
	c-0.25,0.203-0.485,0.397-0.706,0.588l-0.009,0.008c-0.659,0.551-1.578,0.831-2.736,0.831c-3.984,0-10.896-3.415-17.355-11.045
	c-2.832-3.301-5.092-6.838-6.536-10.222c-1.281-3.004-1.891-5.838-1.715-7.982c0.119-1.447,0.596-2.561,1.381-3.221
	c0.208-0.181,0.422-0.375,0.651-0.58c1.294-1.17,2.761-2.498,4.571-2.498c1.528,0,2.919,0.942,4.25,2.88
	c0.99,1.442,1.593,2.641,1.837,3.69c1.882-1.399,4.191-2.179,6.555-2.179c6.046,0,10.966,4.922,10.966,10.973
	c0,2.904-1.178,5.705-3.204,7.745C44.304,32.153,45.303,32.882,46.431,33.932L46.431,33.932z M25.903,12.406
	c-0.993-1.446-1.976-2.179-2.919-2.179c-0.314,0-0.632,0.078-0.95,0.211c0.461,0.518,1.095,1.278,1.771,2.22
	c0.26,0.363,0.175,0.867-0.186,1.128c-0.142,0.102-0.307,0.15-0.471,0.15c-0.25,0-0.499-0.117-0.657-0.336
	c-0.727-1.015-1.411-1.813-1.844-2.29c-0.396,0.316-0.782,0.665-1.151,0.998c-0.236,0.214-0.458,0.416-0.684,0.609l-0.008,0.008
	c-0.443,0.371-0.732,1.123-0.814,2.118c-0.155,1.887,0.41,4.449,1.589,7.215c1.38,3.235,3.551,6.627,6.28,9.809
	c6.096,7.199,12.632,10.477,16.127,10.477c0.754,0,1.341-0.156,1.696-0.451c0.235-0.202,0.476-0.401,0.731-0.61
	c1.264-1.037,2.572-2.11,2.619-3.385c0.033-0.871-0.541-1.876-1.704-2.985c-1.636-1.521-2.905-2.261-3.881-2.261
	c-0.618,0-1.17,0.303-1.758,0.76c0.38,0.242,0.84,0.544,1.314,0.878c0.573,0.4,1.07,0.781,1.48,1.126
	c0.341,0.288,0.385,0.798,0.097,1.139c-0.16,0.189-0.388,0.286-0.618,0.286c-0.183,0-0.368-0.063-0.519-0.189
	c-0.374-0.316-0.834-0.665-1.367-1.039c-0.641-0.451-1.264-0.848-1.677-1.103c-0.006,0.006-0.013,0.011-0.02,0.017
	c-0.383,0.335-0.868,0.512-1.4,0.512c-1.747,0-4.218-1.934-7.77-6.087c-1.808-2.128-3.06-3.844-3.83-5.249
	c-1.172-2.137-1.239-3.678-0.202-4.582l0.016-0.013c0.109-0.089,0.216-0.178,0.322-0.266c1.014-0.829,1.815-1.485,2.015-2.342
	C27.756,15.73,27.224,14.327,25.903,12.406L25.903,12.406z M44.978,23.975c0-5.159-4.196-9.357-9.352-9.357
	c-2.466,0-4.861,0.993-6.605,2.733c-0.399,1.233-1.413,2.065-2.484,2.943c-0.102,0.083-0.203,0.166-0.307,0.252
	c-0.357,0.322-0.147,1.286,0.563,2.581c0.716,1.308,1.907,2.935,3.642,4.976c4.11,4.803,5.863,5.519,6.542,5.519
	c0.185,0,0.277-0.058,0.343-0.116c0.128-0.111,0.253-0.221,0.375-0.327c0.023-0.022,0.048-0.042,0.072-0.064
	c0.002-0.002,0.005-0.005,0.006-0.006c1.111-0.973,2.173-1.874,3.672-1.874c0.025,0,0.05,0.002,0.075,0.002
	C43.691,29.472,44.978,26.78,44.978,23.975L44.978,23.975z M25.562,16.649c-0.125,0.07-0.26,0.103-0.394,0.103
	c-0.283,0-0.557-0.147-0.704-0.411c-0.1-0.178-0.199-0.333-0.308-0.49c-0.257-0.365-0.171-0.868,0.194-1.126
	c0.365-0.257,0.868-0.171,1.125,0.196c0.144,0.202,0.269,0.402,0.397,0.629C26.09,15.937,25.952,16.43,25.562,16.649L25.562,16.649z
	 M44.858,38.971c-0.153,0.138-0.347,0.207-0.538,0.207c-0.222,0-0.443-0.091-0.602-0.269c-0.35-0.391-0.441-0.485-0.444-0.49
	c-0.31-0.321-0.302-0.831,0.017-1.14c0.318-0.311,0.826-0.305,1.137,0.011c0.017,0.017,0.117,0.122,0.493,0.541
	C45.217,38.162,45.189,38.674,44.858,38.971L44.858,38.971z M42.132,25.131h-0.526v1.319c0,0.3-0.357,0.457-0.724,0.457
	c-0.358,0-0.726-0.156-0.726-0.457v-1.319h-2.68c-0.278,0-0.491-0.191-0.491-0.515c0-0.089,0.022-0.189,0.078-0.289l2.645-5.206
	c0.135-0.278,0.38-0.379,0.615-0.379c0.257,0,0.726,0.222,0.726,0.559c0,0.055-0.023,0.122-0.056,0.189l-2.143,4.29h1.306v-1.173
	c0-0.324,0.368-0.458,0.726-0.458c0.368,0,0.724,0.135,0.724,0.458v1.173h0.526c0.3,0,0.457,0.335,0.457,0.681
	C42.589,24.796,42.367,25.131,42.132,25.131L42.132,25.131z M32.594,25.366v0.268h3.104c0.246,0,0.458,0.291,0.458,0.626
	s-0.213,0.648-0.458,0.648h-3.974c-0.258,0-0.637-0.178-0.637-0.457v-1.084c0-1.787,3.595-2.736,3.595-4.311
	c0-0.458-0.302-0.995-1.039-0.995c-0.548,0-0.993,0.291-0.993,0.984c0,0.268-0.28,0.535-0.759,0.535
	c-0.38,0-0.659-0.178-0.659-0.781c0-1.273,1.161-2.056,2.4-2.056c1.295,0,2.5,0.849,2.5,2.267
	C36.133,23.423,32.594,24.203,32.594,25.366L32.594,25.366z M40.574,47.389H24.425c-0.446,0-0.807-0.361-0.807-0.807
	s0.361-0.809,0.807-0.809h16.149c0.446,0,0.807,0.363,0.807,0.809S41.02,47.389,40.574,47.389L40.574,47.389z"/>
</svg>
