<?xml version="1.0" encoding="utf-8"?>
<!-- Generator: Adobe Illustrator 17.0.0, SVG Export Plug-In . SVG Version: 6.00 Build 0)  -->
<!DOCTYPE svg PUBLIC "-//W3C//DTD SVG 1.1//EN" "http://www.w3.org/Graphics/SVG/1.1/DTD/svg11.dtd">
<svg version="1.1" id="Layer_1" xmlns="http://www.w3.org/2000/svg" xmlns:xlink="http://www.w3.org/1999/xlink" x="0px" y="0px"
	 width="65px" height="56px" viewBox="0 0 65 56" enable-background="new 0 0 65 56" xml:space="preserve">
<g>
	<linearGradient id="SVGID_1_" gradientUnits="userSpaceOnUse" x1="30.1629" y1="46.1845" x2="34.8431" y2="46.1845">
		<stop  offset="0" style="stop-color:#22A9E0"/>
		<stop  offset="1" style="stop-color:#00A79C"/>
	</linearGradient>
	<path fill="url(#SVGID_1_)" d="M32.503,40.547c0.703,0,1.275,0.572,1.275,1.275v8.727c0,0.703-0.572,1.275-1.275,1.275
		c-0.703,0-1.275-0.572-1.275-1.275v-8.727C31.228,41.118,31.8,40.547,32.503,40.547 M32.503,39.481c-1.292,0-2.34,1.048-2.34,2.34
		v8.727c0,1.292,1.048,2.34,2.34,2.34c1.292,0,2.34-1.048,2.34-2.34v-8.727C34.843,40.529,33.796,39.481,32.503,39.481
		L32.503,39.481z"/>
	<linearGradient id="SVGID_2_" gradientUnits="userSpaceOnUse" x1="19.4364" y1="29.097" x2="45.5636" y2="29.097">
		<stop  offset="0" style="stop-color:#22A9E0"/>
		<stop  offset="1" style="stop-color:#00A79C"/>
	</linearGradient>
	<path fill="url(#SVGID_2_)" d="M36.868,13.343c0.002,0,0.004,0,0.006,0h0.017l-0.014,0c0.024,0.002,0.054,0.008,0.075,0.014
		l0.03,0.026l5.387,4.562c0.046,0.048,0.329,0.353,0.398,0.721l0.005,0.027l0.006,0.027l1.704,7.06
		c0.011,0.055,0.102,0.542-0.273,0.839c-0.057,0.045-0.247,0.162-0.434,0.162c-0.069,0-0.178-0.014-0.333-0.134l-0.288-0.222H42.79
		h-6.376H35.63l-0.233,0.749c-0.172,0.553-0.501,1.045-0.951,1.422l-1.448,1.212l1.787,0.612c3.209,1.1,3.883,4.493,3.967,4.999
		v8.939c0,0.273-0.222,0.495-0.495,0.495h-0.153v-2.884c0-3.088-2.512-5.599-5.599-5.599c-3.061,0-5.551,2.512-5.551,5.599v2.884
		h-0.251c-0.273,0-0.495-0.222-0.495-0.495v-8.934c0.089-0.5,0.806-3.91,4.014-5.005l1.789-0.611l-1.449-1.214
		c-0.45-0.377-0.778-0.868-0.95-1.421l-0.233-0.749h-0.784H22.21h-0.364l-0.288,0.222c-0.155,0.12-0.265,0.134-0.333,0.134
		c-0.187,0-0.377-0.117-0.418-0.148l-0.016-0.014l-0.017-0.013c-0.358-0.282-0.267-0.77-0.258-0.815l1.706-7.069l0.006-0.027
		l0.005-0.027c0.062-0.329,0.305-0.628,0.396-0.72l5.388-4.563l0.03-0.026c0.023-0.007,0.055-0.014,0.061-0.014h4.296h0.189h4.266
		L36.868,13.343 M36.069,19.779c-0.86-0.496-1.996-0.914-3.384-0.914l-0.077,0.001c-0.013,0-0.025,0-0.037,0l-0.027,0.001l-0.01,0
		l-0.023-0.001l-0.033,0.001l-0.047-0.001l-0.031,0l-0.083-0.001c-1.281,0-2.453,0.396-3.384,0.921v-2.78v-2.222l-1.732,1.391
		l-3.218,2.584l-0.282,0.226l-0.086,0.351l-1.316,5.363l-0.324,1.319h1.359h5.297h0.763l0.246-0.723
		c0.418-1.23,1.57-2.056,2.866-2.056c1.297,0,2.448,0.826,2.866,2.056l0.246,0.723h0.763h5.29h1.359l-0.324-1.319l-1.316-5.363
		l-0.086-0.351l-0.282-0.226l-3.218-2.584l-1.732-1.391v2.222V19.779 M32.503,29.285c1.663,0,3.016-1.353,3.016-3.016
		c0-1.663-1.353-3.015-3.016-3.015c-1.663,0-3.016,1.353-3.016,3.015C29.488,27.932,30.84,29.285,32.503,29.285 M36.891,12.278
		h-4.296h-0.189h-4.296c0,0-0.488,0-0.78,0.293l-5.411,4.583c0,0-0.585,0.536-0.731,1.316l-1.706,7.069c0,0-0.293,1.17,0.634,1.901
		c0,0,0.472,0.405,1.112,0.405c0.302,0,0.641-0.09,0.985-0.356h6.382c0.236,0.759,0.689,1.423,1.284,1.921
		c-4.107,1.402-4.735,5.928-4.735,5.928v9.019c0,0.862,0.699,1.56,1.56,1.56h1.348c-0.02-0.176-0.032-0.355-0.032-0.536v-3.413
		c0-2.504,1.981-4.534,4.485-4.534c2.504,0,4.534,2.03,4.534,4.534v3.413c0,0.182-0.012,0.36-0.033,0.536h1.251
		c0.862,0,1.56-0.698,1.56-1.56v-9.019c0,0-0.592-4.524-4.687-5.927c0.596-0.498,1.048-1.162,1.284-1.922h6.376
		c0.344,0.266,0.683,0.356,0.985,0.356c0.639,0,1.112-0.405,1.112-0.405c0.926-0.731,0.634-1.901,0.634-1.901l-1.706-7.069
		c-0.146-0.78-0.731-1.316-0.731-1.316l-5.411-4.583C37.378,12.278,36.891,12.278,36.891,12.278L36.891,12.278z M37.134,22.028
		v-5.021l3.218,2.584l1.316,5.363h-5.29c-0.549-1.615-2.074-2.779-3.875-2.779c-1.801,0-3.326,1.164-3.875,2.779h-5.297l1.316-5.363
		l3.218-2.584v5.021c0,0,1.604-2.097,4.45-2.097c0.03,0,0.06,0,0.09,0.001v0c0.008,0,0.016-0.001,0.024-0.001
		c0.018,0,0.035,0.001,0.053,0.001c0.006,0,0.011,0,0.017,0c0.006,0,0.011,0,0.017,0c0.018,0,0.035-0.001,0.053-0.001
		c0.008,0,0.016,0,0.024,0.001v0c0.03,0,0.06-0.001,0.09-0.001C35.531,19.931,37.134,22.028,37.134,22.028L37.134,22.028z
		 M32.503,28.219c-1.077,0-1.95-0.873-1.95-1.95c0-1.077,0.873-1.95,1.95-1.95c1.077,0,1.95,0.873,1.95,1.95
		C34.453,27.346,33.58,28.219,32.503,28.219L32.503,28.219z"/>
	<linearGradient id="SVGID_3_" gradientUnits="userSpaceOnUse" x1="39.6209" y1="33.3139" x2="43.7194" y2="33.3139">
		<stop  offset="0" style="stop-color:#22A9E0"/>
		<stop  offset="1" style="stop-color:#00A79C"/>
	</linearGradient>
	<path fill="url(#SVGID_3_)" d="M41.82,30.859c0.989,0.802,0.849,1.453,0.797,1.608l-0.003,0.003l-0.033,0.084l-0.069,0.172
		c-0.236-0.737-0.521-1.355-0.807-1.862L41.82,30.859 M42.156,29.779l-2.535,0.098c0,0,2.486,2.048,2.389,6.971l1.56-3.9
		C43.57,32.948,44.398,31.34,42.156,29.779L42.156,29.779z"/>
	<linearGradient id="SVGID_4_" gradientUnits="userSpaceOnUse" x1="21.2898" y1="33.3139" x2="25.3884" y2="33.3139">
		<stop  offset="0" style="stop-color:#22A9E0"/>
		<stop  offset="1" style="stop-color:#00A79C"/>
	</linearGradient>
	<path fill="url(#SVGID_4_)" d="M23.189,30.859l0.119,0.005c-0.285,0.506-0.571,1.126-0.808,1.867l-0.071-0.178l0.005-0.015
		l-0.038-0.063C22.346,32.337,22.181,31.676,23.189,30.859 M22.853,29.779c-2.243,1.56-1.414,3.169-1.414,3.169l1.56,3.9
		c-0.097-4.924,2.389-6.971,2.389-6.971L22.853,29.779L22.853,29.779z"/>
	<linearGradient id="SVGID_5_" gradientUnits="userSpaceOnUse" x1="28.4079" y1="6.9392" x2="36.062" y2="6.9392">
		<stop  offset="0" style="stop-color:#22A9E0"/>
		<stop  offset="1" style="stop-color:#00A79C"/>
	</linearGradient>
	<path fill="url(#SVGID_5_)" d="M32.235,4.178c1.523,0,2.762,1.239,2.762,2.762c0,1.523-1.239,2.762-2.762,2.762
		c-1.523,0-2.762-1.239-2.762-2.762C29.473,5.416,30.712,4.178,32.235,4.178 M32.235,3.112c-2.114,0-3.827,1.713-3.827,3.827
		c0,2.114,1.713,3.827,3.827,3.827c2.114,0,3.827-1.713,3.827-3.827C36.062,4.826,34.349,3.112,32.235,3.112L32.235,3.112z"/>
</g>
</svg>
