<?xml version="1.0" encoding="utf-8"?>
<!-- Generator: Adobe Illustrator 17.0.0, SVG Export Plug-In . SVG Version: 6.00 Build 0)  -->
<!DOCTYPE svg PUBLIC "-//W3C//DTD SVG 1.1//EN" "http://www.w3.org/Graphics/SVG/1.1/DTD/svg11.dtd">
<svg version="1.1" id="Layer_1" xmlns="http://www.w3.org/2000/svg" xmlns:xlink="http://www.w3.org/1999/xlink" x="0px" y="0px"
	 width="65px" height="56px" viewBox="0 0 65 56" enable-background="new 0 0 65 56" xml:space="preserve">
<linearGradient id="SVGID_1_" gradientUnits="userSpaceOnUse" x1="14.7105" y1="28" x2="50.2895" y2="28">
	<stop  offset="0" style="stop-color:#22A9E0"/>
	<stop  offset="1" style="stop-color:#00A79C"/>
</linearGradient>
<path fill="url(#SVGID_1_)" d="M32.501,39.981c-6.606,0-11.982-5.375-11.982-11.982c0-6.606,5.375-11.98,11.982-11.98
	c6.605,0,11.98,5.374,11.98,11.98C44.481,34.606,39.106,39.981,32.501,39.981L32.501,39.981z M32.501,17.471
	c-5.805,0-10.53,4.723-10.53,10.528c0,5.654,4.479,10.28,10.075,10.519c0.155-0.693,0.444-2.301,0.402-4.57
	c-0.723,0.268-1.78,0.566-2.916,0.566c-0.662,0-1.35-0.102-2.013-0.369c-2.674-1.081-3.759-4.39-3.805-4.53
	c-0.106-0.332,0.039-0.695,0.347-0.86c0.13-0.069,3.209-1.696,5.884-0.615c0.835,0.338,1.516,0.893,2.059,1.5
	c-0.039-0.202-0.078-0.407-0.122-0.615c-0.289-1.38-0.691-2.777-1.195-4.15c-0.138-0.377,0.056-0.795,0.433-0.932
	c0.375-0.138,0.793,0.056,0.931,0.432c0.133,0.365,0.26,0.731,0.38,1.097c0.261-0.734,0.662-1.466,1.269-2.073
	c2.04-2.04,5.51-1.746,5.655-1.733c0.349,0.033,0.626,0.31,0.657,0.657c0.014,0.147,0.307,3.617-1.732,5.657
	c-1.441,1.439-3.592,1.716-4.785,1.751c0.734,4.208,0.332,7.328,0.047,8.748c5.319-0.526,9.488-5.023,9.488-10.478
	C43.029,22.194,38.306,17.471,32.501,17.471L32.501,17.471z M28.557,31.073c0.15-0.372,0.574-0.552,0.946-0.402l2.09,0.845
	c-0.485-0.779-1.208-1.632-2.193-2.029c-1.456-0.59-3.18-0.07-4.064,0.283c0.393,0.868,1.277,2.444,2.727,3.029
	c0.984,0.397,2.096,0.286,2.986,0.064l-2.09-0.845C28.587,31.868,28.407,31.444,28.557,31.073L28.557,31.073z M36.121,26.583
	l-1.594,1.594c0.907-0.144,1.974-0.476,2.725-1.226c1.111-1.111,1.308-2.899,1.328-3.852c-0.954,0.022-2.749,0.221-3.855,1.325
	c-0.756,0.756-1.087,1.824-1.23,2.73l1.599-1.599c0.283-0.283,0.743-0.283,1.028,0C36.406,25.839,36.406,26.299,36.121,26.583
	L36.121,26.583z M49.564,30.904h-2.092c-0.136,0.701-0.321,1.392-0.554,2.067l1.812,1.045c0.347,0.202,0.466,0.645,0.266,0.992
	l-2.179,3.773c-0.2,0.347-0.645,0.466-0.992,0.266l-1.815-1.048c-0.468,0.538-0.973,1.045-1.511,1.511l1.048,1.815
	c0.097,0.167,0.122,0.366,0.074,0.551c-0.05,0.186-0.172,0.346-0.339,0.441l-3.773,2.179c-0.166,0.097-0.365,0.122-0.551,0.072
	c-0.186-0.05-0.344-0.172-0.441-0.338l-1.045-1.812c-0.674,0.233-1.366,0.418-2.067,0.554v2.092c0,0.4-0.325,0.726-0.726,0.726
	h-4.357c-0.401,0-0.726-0.325-0.726-0.726V42.97c-0.701-0.135-1.392-0.319-2.067-0.552l-1.045,1.812
	c-0.097,0.166-0.255,0.288-0.441,0.338c-0.186,0.05-0.385,0.023-0.551-0.072l-3.773-2.179c-0.167-0.097-0.289-0.255-0.339-0.441
	c-0.048-0.186-0.023-0.383,0.074-0.551l1.048-1.815c-0.538-0.468-1.043-0.973-1.513-1.511l-1.813,1.048
	c-0.347,0.2-0.792,0.081-0.992-0.266l-2.179-3.773c-0.2-0.347-0.081-0.792,0.266-0.992l1.812-1.045
	c-0.233-0.674-0.418-1.366-0.554-2.067h-2.092c-0.4,0-0.726-0.325-0.726-0.726v-4.357c0-0.402,0.325-0.726,0.726-0.726h2.093
	c0.135-0.701,0.319-1.392,0.552-2.067l-1.812-1.047c-0.347-0.2-0.466-0.645-0.266-0.992l2.179-3.772
	c0.2-0.347,0.645-0.468,0.992-0.266L20.99,18c0.468-0.538,0.973-1.043,1.511-1.511l-1.048-1.815
	c-0.095-0.166-0.122-0.364-0.072-0.551c0.05-0.186,0.171-0.344,0.338-0.441l3.773-2.178c0.166-0.097,0.365-0.122,0.551-0.072
	c0.186,0.048,0.344,0.171,0.441,0.338l1.045,1.81c0.674-0.232,1.366-0.416,2.067-0.552v-2.092c0-0.402,0.325-0.726,0.726-0.726
	h4.357c0.4,0,0.726,0.324,0.726,0.726v2.092c0.701,0.136,1.392,0.321,2.067,0.552l1.047-1.81c0.095-0.167,0.255-0.289,0.44-0.338
	c0.186-0.05,0.385-0.025,0.552,0.072l3.772,2.179c0.167,0.095,0.289,0.253,0.339,0.44c0.05,0.186,0.023,0.385-0.074,0.551
	L42.5,16.488c0.537,0.468,1.043,0.973,1.511,1.511l1.815-1.047c0.346-0.202,0.79-0.081,0.992,0.266l2.178,3.772
	c0.2,0.347,0.081,0.792-0.266,0.993l-1.81,1.045c0.232,0.674,0.416,1.366,0.552,2.067h2.092c0.4,0,0.726,0.324,0.726,0.726v4.357
	C50.29,30.579,49.964,30.904,49.564,30.904L49.564,30.904z M48.838,26.547H46.86c-0.36,0-0.665-0.263-0.718-0.618
	c-0.153-1.012-0.419-2.009-0.792-2.958c-0.131-0.335,0.002-0.715,0.313-0.895l1.711-0.987l-1.452-2.516l-1.715,0.99
	c-0.311,0.178-0.707,0.105-0.931-0.175c-0.638-0.799-1.367-1.528-2.167-2.167c-0.28-0.224-0.354-0.62-0.175-0.931l0.99-1.715
	l-2.516-1.452l-0.987,1.711c-0.18,0.311-0.56,0.444-0.893,0.313c-0.953-0.372-1.948-0.64-2.96-0.792
	c-0.355-0.053-0.618-0.358-0.618-0.718v-1.977h-2.905v1.977c0,0.36-0.263,0.665-0.618,0.718c-1.012,0.152-2.007,0.419-2.958,0.792
	c-0.335,0.131-0.715-0.002-0.895-0.313l-0.987-1.711l-2.516,1.452l0.99,1.715c0.178,0.311,0.105,0.707-0.175,0.931
	c-0.799,0.638-1.528,1.367-2.167,2.167c-0.224,0.28-0.619,0.354-0.929,0.175l-1.716-0.99l-1.452,2.516l1.711,0.987
	c0.311,0.18,0.444,0.56,0.313,0.895c-0.372,0.951-0.638,1.946-0.792,2.958c-0.053,0.355-0.358,0.618-0.716,0.618h-1.979v2.904h1.979
	c0.358,0,0.663,0.264,0.718,0.619c0.152,1.012,0.418,2.007,0.79,2.958c0.131,0.335-0.002,0.715-0.313,0.895l-1.711,0.987
	l1.453,2.516l1.715-0.99c0.31-0.178,0.706-0.105,0.929,0.175c0.64,0.799,1.367,1.527,2.167,2.167c0.28,0.224,0.354,0.62,0.175,0.929
	l-0.99,1.716l2.516,1.452l0.987-1.711c0.18-0.311,0.56-0.444,0.895-0.313c0.951,0.372,1.946,0.638,2.958,0.79
	c0.355,0.055,0.618,0.36,0.618,0.718v1.979h2.905v-1.979c0-0.358,0.263-0.663,0.618-0.718c1.012-0.152,2.009-0.418,2.96-0.79
	c0.333-0.131,0.713,0.002,0.893,0.313l0.987,1.711l2.516-1.452l-0.99-1.716c-0.178-0.31-0.105-0.706,0.175-0.929
	c0.799-0.64,1.528-1.367,2.167-2.167c0.224-0.28,0.619-0.354,0.931-0.175l1.715,0.99l1.452-2.516l-1.711-0.987
	c-0.311-0.18-0.444-0.56-0.313-0.895c0.372-0.951,0.638-1.946,0.792-2.958c0.053-0.355,0.358-0.618,0.718-0.618h1.977V26.547
	L48.838,26.547z M30.444,22.342c-0.1,0.047-0.207,0.07-0.311,0.07c-0.272,0-0.532-0.153-0.655-0.415l-0.064-0.133
	c-0.175-0.361-0.023-0.795,0.338-0.968c0.361-0.175,0.795-0.023,0.97,0.338l0.066,0.139C30.96,21.735,30.807,22.169,30.444,22.342
	L30.444,22.342z"/>
</svg>
