<?xml version="1.0" encoding="utf-8"?>
<!-- Generator: Adobe Illustrator 17.0.0, SVG Export Plug-In . SVG Version: 6.00 Build 0)  -->
<!DOCTYPE svg PUBLIC "-//W3C//DTD SVG 1.1//EN" "http://www.w3.org/Graphics/SVG/1.1/DTD/svg11.dtd">
<svg version="1.1" id="Layer_1" xmlns="http://www.w3.org/2000/svg" xmlns:xlink="http://www.w3.org/1999/xlink" x="0px" y="0px"
	 width="65px" height="56px" viewBox="0 0 65 56" enable-background="new 0 0 65 56" xml:space="preserve">
<g>
	<path fill="#27AAE1" d="M19.554,24.63h25.891c0.399,0,0.773-0.194,1.002-0.52c0.148-0.209,0.224-0.456,0.224-0.706
		c0-0.139-0.023-0.278-0.072-0.412c-1.035-2.896-2.894-5.378-5.379-7.179c-2.552-1.849-5.568-2.828-8.721-2.828
		s-6.168,0.978-8.721,2.828c-2.484,1.801-4.345,4.284-5.38,7.179c-0.048,0.135-0.072,0.274-0.072,0.413
		c0,0.25,0.076,0.496,0.224,0.706C18.781,24.437,19.155,24.63,19.554,24.63z M32.5,14.211c5.983,0,11.038,3.854,12.945,9.193H19.554
		C21.463,18.065,26.517,14.211,32.5,14.211z"/>
	<path fill="#27AAE1" d="M23.688,27.968c-1.575-0.791-3.25-1.193-4.977-1.193c-0.677,0-1.226,0.549-1.226,1.226
		c0,1.813,0.323,3.585,0.958,5.267c0.613,1.623,1.5,3.118,2.636,4.444c2.285,2.666,5.445,4.461,8.897,5.053
		c0.068,0.012,0.138,0.018,0.206,0.018c0.29,0,0.573-0.103,0.797-0.295c0.272-0.233,0.429-0.574,0.429-0.931
		c0-0.006,0-0.012,0-0.018c-0.056-3.917-1.373-7.599-3.711-10.366C26.54,29.802,25.191,28.723,23.688,27.968z M18.711,28
		c6.279,0,11.365,6.05,11.472,13.556C23.684,40.443,18.711,34.81,18.711,28z"/>
	<path fill="#27AAE1" d="M32.5,9.614c-10.153,0-18.385,8.233-18.385,18.386S22.347,46.385,32.5,46.385S50.885,38.154,50.885,28
		C50.885,17.847,42.653,9.614,32.5,9.614z M44.633,40.134c-1.576,1.576-3.412,2.814-5.455,3.678
		c-2.115,0.895-4.362,1.348-6.679,1.348s-4.564-0.453-6.679-1.348c-2.043-0.864-3.878-2.102-5.455-3.678
		c-1.576-1.576-2.814-3.412-3.678-5.455C15.794,32.564,15.34,30.317,15.34,28s0.453-4.564,1.348-6.679
		c0.864-2.043,2.102-3.878,3.678-5.455c1.576-1.576,3.412-2.814,5.455-3.678c2.115-0.895,4.362-1.348,6.679-1.348
		s4.564,0.453,6.679,1.348c2.043,0.864,3.878,2.102,5.455,3.678c1.576,1.577,2.814,3.412,3.678,5.455
		c0.895,2.115,1.348,4.362,1.348,6.679s-0.453,4.564-1.348,6.679C47.447,36.722,46.21,38.557,44.633,40.134z"/>
	<path fill="#27AAE1" d="M36.024,29.226c0-1.943-1.581-3.524-3.524-3.524c-1.943,0-3.524,1.581-3.524,3.524s1.581,3.524,3.524,3.524
		S36.024,31.169,36.024,29.226z M32.5,31.524c-1.27,0-2.298-1.027-2.298-2.298c0-1.27,1.028-2.298,2.298-2.298
		s2.298,1.028,2.298,2.298C34.798,30.497,33.77,31.524,32.5,31.524z"/>
	<path fill="#27AAE1" d="M46.289,26.775c-1.728,0-3.402,0.402-4.977,1.193c-1.503,0.756-2.852,1.834-4.01,3.205
		c-2.337,2.767-3.655,6.448-3.712,10.366c0,0.006,0,0.012,0,0.018c0,0.358,0.157,0.698,0.429,0.931
		c0.224,0.191,0.507,0.295,0.797,0.295c0.068,0,0.138-0.006,0.206-0.018c3.452-0.592,6.612-2.386,8.898-5.053
		c1.136-1.326,2.023-2.821,2.636-4.444c0.635-1.682,0.958-3.454,0.958-5.267C47.515,27.323,46.966,26.775,46.289,26.775z
		 M34.816,41.557C34.924,34.051,40.01,28,46.289,28C46.289,34.81,41.316,40.443,34.816,41.557z"/>
</g>
</svg>
